# 3ds Max Wavefront OBJ Exporter v0.97b - (c)2007 guruware
# 创建的文件:19.07.2017 16:11:31

mtllib button_off.mtl

#
# object 1_DC_Shell
#

v  65.01 56.95 68.50
v  65.10 56.00 76.00
v  65.01 56.95 76.00
v  65.00 57.44 68.50
v  65.00 57.44 76.00
v  67.07 51.35 76.00
v  66.78 51.74 68.50
v  67.07 51.35 68.50
v  66.78 51.74 76.00
v  66.27 52.55 76.00
v  66.27 52.55 68.50
v  65.86 53.39 68.50
v  65.86 53.39 76.00
v  65.53 54.22 68.50
v  65.53 54.22 76.00
v  65.28 55.09 76.00
v  65.28 55.09 68.50
v  65.10 56.00 68.50
v  84.93 56.30 76.00
v  84.93 56.30 68.50
v  84.57 60.34 68.50
v  84.26 61.22 76.00
v  84.57 60.34 76.00
v  84.97 56.70 76.00
v  84.97 56.70 68.50
v  85.00 57.65 68.50
v  85.00 57.65 76.00
v  84.93 58.58 76.00
v  84.93 58.58 68.50
v  84.79 59.47 68.50
v  84.79 59.47 76.00
v  83.66 62.44 76.00
v  83.85 62.09 68.50
v  83.66 62.44 68.50
v  83.85 62.09 76.00
v  84.26 61.22 68.50
v  79.64 60.12 76.00
v  79.64 60.12 68.50
v  78.25 59.38 68.50
v  69.64 57.44 76.00
v  71.22 57.50 68.50
v  69.64 57.44 68.50
v  71.22 57.50 76.00
v  73.06 57.73 76.00
v  73.06 57.73 68.50
v  74.82 58.12 76.00
v  74.82 58.12 68.50
v  76.53 58.66 76.00
v  76.53 58.66 68.50
v  78.25 59.38 76.00
v  66.19 52.71 76.00
v  84.34 61.01 76.00
v  65.13 55.82 76.00
v  84.99 57.88 76.00
v  78.50 59.50 76.00
v  77.31 58.96 76.00
v  76.08 58.50 76.00
v  73.54 57.82 76.00
v  72.24 57.61 76.00
v  70.94 57.48 76.00
v  84.99 57.88 68.50
v  84.34 61.01 68.50
v  65.13 55.82 68.50
v  66.19 52.71 68.50
v  70.94 57.48 68.50
v  72.24 57.61 68.50
v  73.54 57.82 68.50
v  76.08 58.50 68.50
v  77.31 58.96 68.50
v  78.50 59.50 68.50
# 70 vertices

vn -1.00 -0.05 -0.00
vn -0.99 -0.14 -0.00
vn -1.00 0.00 0.00
vn -0.79 -0.61 -0.00
vn -0.82 -0.57 -0.00
vn -0.87 -0.49 -0.00
vn -0.91 -0.41 -0.00
vn -0.95 -0.32 -0.00
vn -0.97 -0.23 -0.00
vn 0.27 -0.96 -0.00
vn 0.96 0.29 0.00
vn 0.93 0.38 0.00
vn 0.99 -0.11 -0.00
vn 1.00 -0.07 -0.00
vn 1.00 0.02 0.00
vn 0.99 0.11 0.00
vn 0.98 0.20 0.00
vn 0.87 0.50 0.00
vn 0.89 0.46 0.00
vn -0.50 0.87 0.00
vn -0.43 0.90 0.00
vn 0.00 1.00 0.00
vn -0.08 1.00 0.00
vn -0.17 0.99 0.00
vn -0.26 0.97 0.00
vn -0.34 0.94 0.00
vn 0.00 -0.00 1.00
vn -0.00 -0.00 1.00
vn 0.00 0.00 -1.00
# 29 vertex normals

vt -0.08 1.86 0.00
vt -0.32 0.00 0.00
vt -0.08 0.00 0.00
vt 0.04 1.86 0.00
vt 0.04 0.00 0.00
vt -1.65 0.00 0.00
vt -1.53 1.86 0.00
vt -1.65 1.86 0.00
vt -1.53 0.00 0.00
vt -1.29 -0.00 0.00
vt -1.29 1.86 0.00
vt -1.05 1.86 0.00
vt -1.05 -0.00 0.00
vt -0.81 1.86 0.00
vt -0.81 -0.00 0.00
vt -0.56 -0.00 0.00
vt -0.56 1.86 0.00
vt -0.32 1.86 0.00
vt -1.86 0.00 0.00
vt -0.00 -4.60 0.00
vt -0.00 0.00 0.00
vt -1.86 -4.60 0.00
vt 7.00 1.86 0.00
vt 6.76 -0.00 0.00
vt 7.00 -0.00 0.00
vt 8.07 1.86 0.00
vt 7.97 -0.00 0.00
vt 8.07 -0.00 0.00
vt 7.97 1.86 0.00
vt 7.73 1.86 0.00
vt 7.73 -0.00 0.00
vt 7.49 -0.00 0.00
vt 7.49 1.86 0.00
vt 7.25 1.86 0.00
vt 7.25 -0.00 0.00
vt 6.42 -0.00 0.00
vt 6.52 1.86 0.00
vt 6.42 1.86 0.00
vt 6.52 -0.00 0.00
vt 6.76 1.86 0.00
vt -1.86 1.15 0.00
vt -0.00 -0.00 0.00
vt -0.00 1.15 0.00
vt -1.86 -0.00 0.00
vt 1.86 20.99 0.00
vt 0.00 20.59 0.00
vt 1.86 20.59 0.00
vt 0.00 23.33 0.00
vt 1.86 22.93 0.00
vt 1.86 23.33 0.00
vt -0.00 22.93 0.00
vt -0.00 22.44 0.00
vt 1.86 22.44 0.00
vt -0.00 21.96 0.00
vt 1.86 21.96 0.00
vt 0.00 21.47 0.00
vt 1.86 21.47 0.00
vt 0.00 20.99 0.00
vt -1.97 -1.51 0.00
vt -1.33 -0.00 0.00
vt -2.19 -1.17 0.00
vt 1.15 0.67 0.00
vt 2.32 0.89 0.00
vt 2.15 1.24 0.00
vt -2.45 -0.40 0.00
vt -2.48 -0.00 0.00
vt -2.35 -0.80 0.00
vt 2.43 0.50 0.00
vt 2.48 0.11 0.00
vt 2.47 -0.28 0.00
vt 0.87 0.51 0.00
vt 0.57 0.38 0.00
vt 0.27 0.26 0.00
vt -0.05 0.17 0.00
vt -0.36 0.10 0.00
vt -0.69 0.04 0.00
vt -1.01 0.01 0.00
vt -0.28 2.47 0.00
vt 0.67 1.15 0.00
vt 0.11 2.48 0.00
vt 0.89 2.32 0.00
vt 1.24 2.15 0.00
vt 0.00 -1.33 0.00
vt -0.40 -2.45 0.00
vt 0.00 -2.48 0.00
vt -0.80 -2.35 0.00
vt 0.50 2.43 0.00
vt -1.17 -2.19 0.00
vt -1.51 -1.97 0.00
vt 0.01 -1.01 0.00
vt 0.04 -0.69 0.00
vt 0.10 -0.36 0.00
vt 0.17 -0.05 0.00
vt 0.26 0.27 0.00
vt 0.38 0.57 0.00
vt 0.51 0.87 0.00
# 96 texture coords

g 1_DC_Shell
usemtl wire_135006006
s 1
f 1/1/1 2/2/2 3/3/1 
f 4/4/3 3/3/1 5/5/3 
f 1/1/1 3/3/1 4/4/3 
f 6/6/4 7/7/5 8/8/4 
f 9/9/5 7/7/5 6/6/4 
f 10/10/6 7/7/5 9/9/5 
f 10/10/6 11/11/6 7/7/5 
f 10/10/6 12/12/7 11/11/6 
f 13/13/7 12/12/7 10/10/6 
f 13/13/7 14/14/8 12/12/7 
f 15/15/8 14/14/8 13/13/7 
f 16/16/9 14/14/8 15/15/8 
f 16/16/9 17/17/9 14/14/8 
f 2/2/2 17/17/9 16/16/9 
f 2/2/2 18/18/2 17/17/9 
f 2/2/2 1/1/1 18/18/2 
f 8/19/10 19/20/10 6/21/10 
f 19/20/10 8/19/10 20/22/10 
f 21/23/11 22/24/12 23/25/11 
f 20/26/13 24/27/14 19/28/13 
f 25/29/14 24/27/14 20/26/13 
f 26/30/15 24/27/14 25/29/14 
f 26/30/15 27/31/15 24/27/14 
f 26/30/15 28/32/16 27/31/15 
f 29/33/16 28/32/16 26/30/15 
f 30/34/17 28/32/16 29/33/16 
f 30/34/17 31/35/17 28/32/16 
f 21/23/11 31/35/17 30/34/17 
f 21/23/11 23/25/11 31/35/17 
f 32/36/18 33/37/19 34/38/18 
f 35/39/19 33/37/19 32/36/18 
f 22/24/12 33/37/19 35/39/19 
f 22/24/12 36/40/12 33/37/19 
f 22/24/12 21/23/11 36/40/12 
f 34/41/20 37/42/20 32/43/20 
f 37/42/20 34/41/20 38/44/20 
f 39/45/21 37/46/20 38/47/20 
f 40/48/22 41/49/23 42/50/22 
f 43/51/23 41/49/23 40/48/22 
f 44/52/24 41/49/23 43/51/23 
f 44/52/24 45/53/24 41/49/23 
f 46/54/25 45/53/24 44/52/24 
f 46/54/25 47/55/25 45/53/24 
f 48/56/26 47/55/25 46/54/25 
f 48/56/26 49/57/26 47/55/25 
f 50/58/21 49/57/26 48/56/26 
f 50/58/21 39/45/21 49/57/26 
f 37/46/20 39/45/21 50/58/21 
f 42/41/22 5/42/22 40/43/22 
f 5/42/22 42/41/22 4/44/22 
f 6/59/27 40/60/27 51/61/28 
f 37/62/27 52/63/27 32/64/27 
f 53/65/27 40/60/27 5/66/27 
f 15/67/28 40/60/27 53/65/27 
f 37/62/27 31/68/27 52/63/27 
f 37/62/27 54/69/27 31/68/27 
f 51/61/28 40/60/27 15/67/28 
f 54/69/27 6/59/27 19/70/28 
f 37/62/27 6/59/27 54/69/27 
f 55/71/27 6/59/27 37/62/27 
f 56/72/27 6/59/27 55/71/27 
f 57/73/28 6/59/27 56/72/27 
f 46/74/27 6/59/27 57/73/28 
f 58/75/27 6/59/27 46/74/27 
f 59/76/27 6/59/27 58/75/27 
f 60/77/28 6/59/27 59/76/27 
f 40/60/27 6/59/27 60/77/28 
f 20/78/29 38/79/29 61/80/29 
f 62/81/29 38/79/29 34/82/29 
f 42/83/29 63/84/29 4/85/29 
f 42/83/29 14/86/29 63/84/29 
f 30/87/29 38/79/29 62/81/29 
f 61/80/29 38/79/29 30/87/29 
f 42/83/29 64/88/29 14/86/29 
f 64/88/29 20/78/29 8/89/29 
f 42/83/29 20/78/29 64/88/29 
f 65/90/29 20/78/29 42/83/29 
f 66/91/29 20/78/29 65/90/29 
f 67/92/29 20/78/29 66/91/29 
f 47/93/29 20/78/29 67/92/29 
f 68/94/29 20/78/29 47/93/29 
f 69/95/29 20/78/29 68/94/29 
f 70/96/29 20/78/29 69/95/29 
f 38/79/29 20/78/29 70/96/29 
# 84 faces

