# 3ds Max Wavefront OBJ Exporter v0.97b - (c)2007 guruware
# 创建的文件:19.07.2017 16:10:34

mtllib cylinder.mtl

#
# object NONE_DC_Shell
#

v  -79.27 129.01 16.77
v  -40.63 124.92 -41.60
v  -79.58 124.92 16.56
v  -3.24 124.92 -16.56
v  -42.51 129.01 41.39
v  -42.19 124.92 41.60
v  -3.55 129.01 -16.77
v  -4.55 133.20 -17.44
v  -43.51 133.20 40.72
v  -6.29 137.23 -18.60
v  -45.24 137.23 39.56
v  -8.71 140.83 -20.23
v  -47.67 140.83 37.93
v  -11.70 143.75 -22.23
v  -50.66 143.75 35.93
v  -15.05 145.84 -24.47
v  -54.01 145.84 33.69
v  -18.53 147.04 -26.80
v  -57.49 147.04 31.36
v  -21.93 147.42 -29.08
v  -60.89 147.42 29.08
v  -25.33 147.04 -31.36
v  -64.29 147.04 26.80
v  -28.81 145.84 -33.69
v  -67.77 145.84 24.47
v  -32.16 143.75 -35.93
v  -71.12 143.75 22.23
v  -35.15 140.83 -37.93
v  -74.11 140.83 20.23
v  -37.58 137.23 -39.56
v  -76.53 137.23 18.60
v  -39.31 133.20 -40.72
v  -78.27 133.20 17.44
v  -40.31 129.01 -41.39
v  -42.51 120.82 41.39
v  -40.31 120.82 -41.39
v  -79.27 120.82 16.77
v  -39.31 116.64 -40.72
v  -78.27 116.64 17.44
v  -37.58 112.61 -39.56
v  -76.53 112.61 18.60
v  -35.15 109.01 -37.93
v  -74.11 109.01 20.23
v  -71.12 106.09 22.23
v  -32.16 106.09 -35.93
v  -28.81 104.00 -33.69
v  -67.77 104.00 24.47
v  -25.33 102.79 -31.36
v  -64.29 102.79 26.80
v  -21.93 102.42 -29.08
v  -60.89 102.42 29.08
v  -18.53 102.79 -26.80
v  -57.49 102.79 31.36
v  -15.05 104.00 -24.47
v  -54.01 104.00 33.69
v  -11.70 106.09 -22.23
v  -50.66 106.09 35.93
v  -8.71 109.01 -20.23
v  -47.67 109.01 37.93
v  -45.24 112.61 39.56
v  -6.29 112.61 -18.60
v  -4.55 116.64 -17.44
v  -43.51 116.64 40.72
v  -3.55 120.82 -16.77
# 64 vertices

vn -0.82 0.18 -0.55
vn -0.83 0.00 -0.56
vn 0.83 -0.00 0.56
vn 0.82 0.18 0.55
vn 0.77 0.37 0.52
vn 0.70 0.55 0.47
vn 0.59 0.71 0.39
vn 0.45 0.84 0.30
vn 0.31 0.93 0.20
vn 0.15 0.98 0.10
vn -0.00 1.00 0.00
vn -0.15 0.98 -0.10
vn -0.31 0.93 -0.20
vn -0.45 0.84 -0.30
vn -0.59 0.71 -0.39
vn -0.70 0.55 -0.47
vn -0.77 0.37 -0.52
vn 0.82 -0.18 0.55
vn -0.82 -0.18 -0.55
vn -0.77 -0.37 -0.52
vn -0.70 -0.55 -0.47
vn -0.59 -0.71 -0.39
vn -0.45 -0.84 -0.30
vn -0.31 -0.93 -0.20
vn -0.15 -0.98 -0.10
vn 0.00 -1.00 -0.00
vn 0.15 -0.98 0.10
vn 0.31 -0.93 0.20
vn 0.45 -0.84 0.30
vn 0.59 -0.71 0.39
vn 0.70 -0.55 0.47
vn 0.77 -0.37 0.52
vn 0.56 0.00 -0.83
vn -0.56 -0.00 0.83
# 34 vertex normals

vt 3.25 3.46 0.00
vt 3.47 0.00 0.00
vt 3.47 3.46 0.00
vt 0.00 0.00 0.00
vt 0.22 3.46 0.00
vt 0.00 3.46 0.00
vt 0.22 0.00 0.00
vt 0.43 0.00 0.00
vt 0.43 3.46 0.00
vt 0.65 0.00 0.00
vt 0.65 3.46 0.00
vt 0.87 0.00 0.00
vt 0.87 3.46 0.00
vt 1.08 0.00 0.00
vt 1.08 3.46 0.00
vt 1.30 0.00 0.00
vt 1.30 3.46 0.00
vt 1.52 0.00 0.00
vt 1.52 3.46 0.00
vt 1.73 0.00 0.00
vt 1.73 3.46 0.00
vt 1.95 0.00 0.00
vt 1.95 3.46 0.00
vt 2.17 0.00 0.00
vt 2.17 3.46 0.00
vt 2.38 0.00 0.00
vt 2.38 3.46 0.00
vt 2.60 0.00 0.00
vt 2.60 3.46 0.00
vt 2.82 0.00 0.00
vt 2.82 3.46 0.00
vt 3.03 0.00 0.00
vt 3.03 3.46 0.00
vt 3.25 0.00 0.00
vt 6.72 3.46 0.00
vt 6.93 0.00 0.00
vt 6.93 3.46 0.00
vt 3.68 -0.00 0.00
vt 3.47 -0.00 0.00
vt 3.68 3.46 0.00
vt 3.90 -0.00 0.00
vt 3.90 3.46 0.00
vt 4.12 -0.00 0.00
vt 4.12 3.46 0.00
vt 4.33 -0.00 0.00
vt 4.33 3.46 0.00
vt 4.55 3.46 0.00
vt 4.55 0.00 0.00
vt 4.77 0.00 0.00
vt 4.77 3.46 0.00
vt 4.98 0.00 0.00
vt 4.98 3.46 0.00
vt 5.20 0.00 0.00
vt 5.20 3.46 0.00
vt 5.42 0.00 0.00
vt 5.42 3.46 0.00
vt 5.63 0.00 0.00
vt 5.63 3.46 0.00
vt 5.85 0.00 0.00
vt 5.85 3.46 0.00
vt 6.07 0.00 0.00
vt 6.07 3.46 0.00
vt 6.28 3.46 0.00
vt 6.28 0.00 0.00
vt 6.50 0.00 0.00
vt 6.50 3.46 0.00
vt 6.72 0.00 0.00
vt -0.41 1.03 0.00
vt 0.00 1.11 0.00
vt -0.20 1.09 0.00
vt -1.09 0.20 0.00
vt -0.93 0.61 0.00
vt -1.03 0.41 0.00
vt -0.79 0.79 0.00
vt -0.61 0.93 0.00
vt -1.11 -0.00 0.00
vt -1.09 -0.20 0.00
vt -1.03 -0.41 0.00
vt -0.93 -0.61 0.00
vt -0.79 -0.79 0.00
vt -0.61 -0.93 0.00
vt -0.41 -1.03 0.00
vt -0.20 -1.09 0.00
vt -0.00 -1.11 0.00
vt 0.20 -1.09 0.00
vt 0.41 -1.03 0.00
vt 0.61 -0.93 0.00
vt 0.79 -0.79 0.00
vt 0.93 -0.61 0.00
vt 1.03 -0.41 0.00
vt 1.09 -0.20 0.00
vt 1.11 -0.00 0.00
vt 1.09 0.20 0.00
vt 1.03 0.41 0.00
vt 0.93 0.61 0.00
vt 0.79 0.79 0.00
vt 0.61 0.93 0.00
vt 0.41 1.03 0.00
vt 0.20 1.09 0.00
vt -1.11 0.00 0.00
vt -0.00 1.11 0.00
# 101 texture coords

g NONE_DC_Shell
usemtl 02___Default
s 1
f 1/1/1 2/2/2 3/3/2 
f 4/4/3 5/5/4 6/6/3 
f 7/7/4 5/5/4 4/4/3 
f 8/8/5 5/5/4 7/7/4 
f 8/8/5 9/9/5 5/5/4 
f 10/10/6 9/9/5 8/8/5 
f 10/10/6 11/11/6 9/9/5 
f 12/12/7 11/11/6 10/10/6 
f 12/12/7 13/13/7 11/11/6 
f 14/14/8 13/13/7 12/12/7 
f 14/14/8 15/15/8 13/13/7 
f 16/16/9 15/15/8 14/14/8 
f 16/16/9 17/17/9 15/15/8 
f 18/18/10 17/17/9 16/16/9 
f 18/18/10 19/19/10 17/17/9 
f 20/20/11 19/19/10 18/18/10 
f 20/20/11 21/21/11 19/19/10 
f 22/22/12 21/21/11 20/20/11 
f 22/22/12 23/23/12 21/21/11 
f 24/24/13 23/23/12 22/22/12 
f 24/24/13 25/25/13 23/23/12 
f 26/26/14 25/25/13 24/24/13 
f 26/26/14 27/27/14 25/25/13 
f 28/28/15 27/27/14 26/26/14 
f 28/28/15 29/29/15 27/27/14 
f 30/30/16 29/29/15 28/28/15 
f 30/30/16 31/31/16 29/29/15 
f 32/32/17 31/31/16 30/30/16 
f 32/32/17 33/33/17 31/31/16 
f 34/34/1 33/33/17 32/32/17 
f 34/34/1 1/1/1 33/33/17 
f 2/2/2 1/1/1 34/34/1 
f 35/35/18 4/36/3 6/37/3 
f 36/38/19 3/3/2 2/39/2 
f 36/38/19 37/40/19 3/3/2 
f 38/41/20 37/40/19 36/38/19 
f 38/41/20 39/42/20 37/40/19 
f 40/43/21 39/42/20 38/41/20 
f 40/43/21 41/44/21 39/42/20 
f 42/45/22 41/44/21 40/43/21 
f 42/45/22 43/46/22 41/44/21 
f 42/45/22 44/47/23 43/46/22 
f 45/48/23 44/47/23 42/45/22 
f 46/49/24 44/47/23 45/48/23 
f 46/49/24 47/50/24 44/47/23 
f 48/51/25 47/50/24 46/49/24 
f 48/51/25 49/52/25 47/50/24 
f 50/53/26 49/52/25 48/51/25 
f 50/53/26 51/54/26 49/52/25 
f 52/55/27 51/54/26 50/53/26 
f 52/55/27 53/56/27 51/54/26 
f 54/57/28 53/56/27 52/55/27 
f 54/57/28 55/58/28 53/56/27 
f 56/59/29 55/58/28 54/57/28 
f 56/59/29 57/60/29 55/58/28 
f 58/61/30 57/60/29 56/59/29 
f 58/61/30 59/62/30 57/60/29 
f 58/61/30 60/63/31 59/62/30 
f 61/64/31 60/63/31 58/61/30 
f 62/65/32 60/63/31 61/64/31 
f 62/65/32 63/66/32 60/63/31 
f 64/67/18 63/66/32 62/65/32 
f 64/67/18 35/35/18 63/66/32 
f 4/36/3 35/35/18 64/67/18 
f 16/68/33 20/69/33 18/70/33 
f 7/71/33 10/72/33 8/73/33 
f 7/71/33 12/74/33 10/72/33 
f 7/71/33 14/75/33 12/74/33 
f 4/76/33 14/75/33 7/71/33 
f 4/76/33 16/68/33 14/75/33 
f 64/77/33 16/68/33 4/76/33 
f 62/78/33 16/68/33 64/77/33 
f 61/79/33 16/68/33 62/78/33 
f 58/80/33 16/68/33 61/79/33 
f 56/81/33 16/68/33 58/80/33 
f 54/82/33 16/68/33 56/81/33 
f 52/83/33 16/68/33 54/82/33 
f 50/84/33 16/68/33 52/83/33 
f 48/85/33 16/68/33 50/84/33 
f 46/86/33 16/68/33 48/85/33 
f 45/87/33 16/68/33 46/86/33 
f 42/88/33 16/68/33 45/87/33 
f 40/89/33 16/68/33 42/88/33 
f 38/90/33 16/68/33 40/89/33 
f 36/91/33 16/68/33 38/90/33 
f 2/92/33 16/68/33 36/91/33 
f 34/93/33 16/68/33 2/92/33 
f 32/94/33 16/68/33 34/93/33 
f 30/95/33 16/68/33 32/94/33 
f 28/96/33 16/68/33 30/95/33 
f 26/97/33 16/68/33 28/96/33 
f 24/98/33 16/68/33 26/97/33 
f 22/99/33 16/68/33 24/98/33 
f 20/69/33 16/68/33 22/99/33 
f 53/77/34 49/71/34 51/100/34 
f 35/83/34 60/81/34 63/82/34 
f 35/83/34 59/80/34 60/81/34 
f 35/83/34 57/79/34 59/80/34 
f 6/84/34 57/79/34 35/83/34 
f 6/84/34 55/78/34 57/79/34 
f 5/85/34 55/78/34 6/84/34 
f 9/86/34 55/78/34 5/85/34 
f 11/87/34 55/78/34 9/86/34 
f 13/88/34 55/78/34 11/87/34 
f 15/89/34 55/78/34 13/88/34 
f 17/90/34 55/78/34 15/89/34 
f 19/91/34 55/78/34 17/90/34 
f 21/92/34 55/78/34 19/91/34 
f 23/93/34 55/78/34 21/92/34 
f 25/94/34 55/78/34 23/93/34 
f 27/95/34 55/78/34 25/94/34 
f 29/96/34 55/78/34 27/95/34 
f 31/97/34 55/78/34 29/96/34 
f 33/98/34 55/78/34 31/97/34 
f 1/99/34 55/78/34 33/98/34 
f 3/101/34 55/78/34 1/99/34 
f 37/70/34 55/78/34 3/101/34 
f 37/70/34 53/77/34 55/78/34 
f 39/68/34 53/77/34 37/70/34 
f 41/75/34 53/77/34 39/68/34 
f 43/74/34 53/77/34 41/75/34 
f 44/72/34 53/77/34 43/74/34 
f 47/73/34 53/77/34 44/72/34 
f 49/71/34 53/77/34 47/73/34 
# 124 faces

