# 3ds Max Wavefront OBJ Exporter v0.97b - (c)2007 guruware
# 创建的文件:19.07.2017 16:04:37

mtllib slider0.mtl

#
# object 3_DC_Shell
#

v  98.23 376.99 -9.23
v  99.53 296.99 -4.85
v  99.53 376.99 -4.85
v  50.00 296.99 0.31
v  50.47 376.99 4.85
v  50.47 296.99 4.85
v  50.00 376.99 0.31
v  50.41 296.99 -4.52
v  50.41 376.99 -4.52
v  51.82 296.99 -9.36
v  51.82 376.99 -9.36
v  54.23 296.99 -13.91
v  54.23 376.99 -13.91
v  57.52 296.99 -17.87
v  57.52 376.99 -17.87
v  61.46 296.99 -21.02
v  61.46 376.99 -21.02
v  65.77 296.99 -23.23
v  65.77 376.99 -23.23
v  70.15 296.99 -24.53
v  70.15 376.99 -24.53
v  74.69 296.99 -25.00
v  74.69 376.99 -25.00
v  79.52 296.99 -24.59
v  79.52 376.99 -24.59
v  84.36 296.99 -23.18
v  84.36 376.99 -23.18
v  88.91 296.99 -20.77
v  88.91 376.99 -20.77
v  92.87 296.99 -17.48
v  92.87 376.99 -17.48
v  96.02 296.99 -13.54
v  96.02 376.99 -13.54
v  98.23 296.99 -9.23
v  40.66 296.99 6.79
v  42.00 306.17 11.68
v  40.66 306.11 6.79
v  42.00 366.17 11.68
v  40.66 376.99 6.79
v  40.66 366.11 6.79
v  42.47 376.99 12.92
v  44.04 366.37 16.32
v  45.57 376.99 18.95
v  109.34 376.99 -6.79
v  110.00 296.99 -0.43
v  109.34 296.99 -6.79
v  110.00 376.99 -0.43
v  109.42 376.99 6.33
v  109.42 296.99 6.33
v  107.45 376.99 13.11
v  107.45 296.99 13.11
v  104.08 376.99 19.48
v  104.08 296.99 19.48
v  99.47 376.99 25.02
v  99.47 296.99 25.02
v  93.95 376.99 29.43
v  93.95 296.99 29.43
v  87.92 376.99 32.53
v  87.92 296.99 32.53
v  81.79 376.99 34.34
v  81.79 296.99 34.34
v  75.43 376.99 35.00
v  75.43 296.99 35.00
v  68.67 376.99 34.42
v  68.67 296.99 34.42
v  61.89 376.99 32.45
v  61.89 296.99 32.45
v  55.52 376.99 29.08
v  55.52 296.99 29.08
v  49.98 376.99 24.47
v  49.98 296.99 24.47
v  45.57 296.99 18.95
v  44.04 306.37 16.32
v  42.47 296.99 12.92
v  40.04 366.17 1.76
v  -5.58 358.14 5.95
v  -21.16 354.65 29.21
v  40.16 366.37 -3.30
v  -5.81 358.10 5.79
v  -5.58 298.14 5.95
v  40.04 306.17 1.76
v  40.16 306.37 -3.30
v  -5.81 298.10 5.79
v  -21.16 294.65 29.21
v  100.00 376.99 -0.31
v  99.59 376.99 4.52
v  98.18 376.99 9.36
v  95.77 376.99 13.91
v  92.48 376.99 17.87
v  88.54 376.99 21.02
v  84.23 376.99 23.23
v  79.85 376.99 24.53
v  75.31 376.99 25.00
v  70.48 376.99 24.59
v  65.64 376.99 23.18
v  61.09 376.99 20.77
v  57.13 376.99 17.48
v  53.98 376.99 13.54
v  51.77 376.99 9.23
v  40.00 376.99 0.43
v  40.58 376.99 -6.33
v  42.55 376.99 -13.11
v  45.92 376.99 -19.48
v  50.53 376.99 -25.02
v  56.05 376.99 -29.43
v  62.08 376.99 -32.53
v  68.21 376.99 -34.34
v  74.57 376.99 -35.00
v  81.33 376.99 -34.42
v  88.11 376.99 -32.45
v  94.48 376.99 -29.08
v  100.02 376.99 -24.47
v  104.43 376.99 -18.95
v  107.53 376.99 -12.92
v  88.54 296.99 21.02
v  92.48 296.99 17.87
v  95.77 296.99 13.91
v  98.18 296.99 9.36
v  99.59 296.99 4.52
v  100.00 296.99 -0.31
v  107.53 296.99 -12.92
v  104.43 296.99 -18.95
v  100.02 296.99 -24.47
v  94.48 296.99 -29.08
v  88.11 296.99 -32.45
v  81.33 296.99 -34.42
v  74.57 296.99 -35.00
v  68.21 296.99 -34.34
v  62.08 296.99 -32.53
v  56.05 296.99 -29.43
v  50.53 296.99 -25.02
v  45.92 296.99 -19.48
v  42.55 296.99 -13.11
v  40.58 296.99 -6.33
v  40.00 296.99 0.43
v  51.77 296.99 9.23
v  53.98 296.99 13.54
v  57.13 296.99 17.48
v  61.09 296.99 20.77
v  65.64 296.99 23.18
v  70.48 296.99 24.59
v  75.31 296.99 25.00
v  79.85 296.99 24.53
v  84.23 296.99 23.23
v  -5.58 359.65 5.95
v  -5.58 279.65 5.95
v  -18.04 279.65 -2.40
v  -18.04 359.65 -2.40
v  -34.74 279.65 22.52
v  -22.27 279.65 30.87
v  -22.27 359.65 30.87
v  -34.74 359.65 22.52
# 152 vertices

vn -0.93 -0.00 0.37
vn -0.98 -0.00 0.19
vn 1.00 0.00 -0.01
vn 0.98 0.00 -0.19
vn 0.98 0.00 0.18
vn 0.93 0.00 0.37
vn 0.83 0.00 0.56
vn 0.70 0.00 0.71
vn 0.54 0.00 0.84
vn 0.37 0.00 0.93
vn 0.19 0.00 0.98
vn 0.01 -0.00 1.00
vn -0.18 -0.00 0.98
vn -0.37 -0.00 0.93
vn -0.56 -0.00 0.83
vn -0.71 -0.00 0.70
vn -0.84 -0.00 0.54
vn -0.94 -0.00 0.33
vn -0.88 -0.00 0.47
vn 0.19 -0.00 0.98
vn -0.17 0.98 0.03
vn 0.17 -0.98 -0.03
vn -0.19 0.00 -0.98
vn -0.00 1.00 0.00
vn 0.00 -1.00 -0.00
vn -1.00 -0.00 -0.09
vn -0.98 -0.00 -0.18
vn -1.00 -0.00 0.05
vn -1.00 -0.00 0.01
vn 0.93 0.00 -0.37
vn 0.84 0.00 -0.54
vn 0.71 0.00 -0.70
vn 0.56 0.00 -0.83
vn 0.37 0.00 -0.93
vn 0.18 0.00 -0.98
vn -0.01 0.00 -1.00
vn -0.19 -0.00 -0.98
vn -0.37 -0.00 -0.93
vn -0.54 -0.00 -0.84
vn -0.70 -0.00 -0.71
vn -0.83 -0.00 -0.56
vn -0.93 -0.00 -0.37
# 42 vertex normals

vt -0.00 4.78 0.00
vt 2.53 4.94 0.00
vt -0.00 4.94 0.00
vt 2.53 2.62 0.00
vt -0.00 2.47 0.00
vt 2.53 2.47 0.00
vt -0.00 2.62 0.00
vt 2.53 2.78 0.00
vt -0.00 2.78 0.00
vt 2.53 2.93 0.00
vt -0.00 2.93 0.00
vt 2.53 3.08 0.00
vt -0.00 3.08 0.00
vt 2.53 3.24 0.00
vt -0.00 3.24 0.00
vt 2.53 3.39 0.00
vt -0.00 3.39 0.00
vt 2.53 3.55 0.00
vt -0.00 3.55 0.00
vt 2.53 3.70 0.00
vt -0.00 3.70 0.00
vt 2.53 3.86 0.00
vt -0.00 3.86 0.00
vt 2.53 4.01 0.00
vt -0.00 4.01 0.00
vt 2.53 4.16 0.00
vt -0.00 4.16 0.00
vt 2.53 4.32 0.00
vt -0.00 4.32 0.00
vt 2.53 4.47 0.00
vt -0.00 4.47 0.00
vt 2.53 4.63 0.00
vt -0.00 4.63 0.00
vt 2.53 4.78 0.00
vt 3.46 2.53 0.00
vt 3.28 2.24 0.00
vt 3.46 2.24 0.00
vt 3.28 0.34 0.00
vt 3.46 -0.00 0.00
vt 3.46 0.34 0.00
vt 3.24 -0.00 0.00
vt 3.12 0.34 0.00
vt 3.02 -0.00 0.00
vt 0.00 -0.00 0.00
vt 0.22 2.53 0.00
vt 0.00 2.53 0.00
vt 0.22 -0.00 0.00
vt 0.43 -0.00 0.00
vt 0.43 2.53 0.00
vt 0.65 -0.00 0.00
vt 0.65 2.53 0.00
vt 0.86 -0.00 0.00
vt 0.86 2.53 0.00
vt 1.08 -0.00 0.00
vt 1.08 2.53 0.00
vt 1.30 -0.00 0.00
vt 1.30 2.53 0.00
vt 1.51 -0.00 0.00
vt 1.51 2.53 0.00
vt 1.73 -0.00 0.00
vt 1.73 2.53 0.00
vt 1.94 -0.00 0.00
vt 1.94 2.53 0.00
vt 2.16 -0.00 0.00
vt 2.16 2.53 0.00
vt 2.38 -0.00 0.00
vt 2.38 2.53 0.00
vt 2.59 -0.00 0.00
vt 2.59 2.53 0.00
vt 2.81 -0.00 0.00
vt 2.81 2.53 0.00
vt 3.02 2.53 0.00
vt 3.12 2.23 0.00
vt 3.24 2.53 0.00
vt -2.10 0.16 0.00
vt -0.64 0.01 0.00
vt -2.09 0.32 0.00
vt -2.13 0.63 0.00
vt -0.00 0.63 0.00
vt -2.13 -0.00 0.00
vt -0.63 -0.00 0.00
vt -2.10 0.48 0.00
vt -1.61 0.01 0.00
vt -0.15 0.16 0.00
vt -0.16 0.32 0.00
vt -0.11 -0.00 0.00
vt -1.62 -0.00 0.00
vt -0.11 0.63 0.00
vt -2.25 0.63 0.00
vt -0.15 0.48 0.00
vt 0.11 -1.92 0.00
vt 1.59 -0.28 0.00
vt 0.11 -0.02 0.00
vt 1.59 -2.18 0.00
vt -1.03 0.41 0.00
vt -0.78 0.14 0.00
vt -0.74 0.29 0.00
vt -0.93 0.61 0.00
vt -0.66 0.43 0.00
vt -0.78 0.78 0.00
vt -0.56 0.56 0.00
vt -0.61 0.93 0.00
vt -0.43 0.66 0.00
vt -0.41 1.03 0.00
vt -0.29 0.74 0.00
vt -0.20 1.09 0.00
vt -0.14 0.78 0.00
vt -0.00 1.11 0.00
vt -0.00 0.79 0.00
vt 0.20 1.09 0.00
vt 0.14 0.78 0.00
vt 0.41 1.03 0.00
vt 0.29 0.74 0.00
vt 0.61 0.93 0.00
vt 0.43 0.66 0.00
vt 0.78 0.78 0.00
vt 0.56 0.56 0.00
vt 0.93 0.61 0.00
vt 0.66 0.43 0.00
vt 1.03 0.41 0.00
vt 0.74 0.29 0.00
vt 1.09 0.20 0.00
vt 0.78 0.14 0.00
vt 1.11 -0.00 0.00
vt 0.79 -0.00 0.00
vt 1.09 -0.20 0.00
vt 0.78 -0.14 0.00
vt 1.03 -0.41 0.00
vt 0.74 -0.29 0.00
vt 0.93 -0.61 0.00
vt 0.66 -0.43 0.00
vt 0.78 -0.78 0.00
vt 0.56 -0.56 0.00
vt 0.61 -0.93 0.00
vt 0.43 -0.66 0.00
vt 0.41 -1.03 0.00
vt 0.29 -0.74 0.00
vt 0.20 -1.09 0.00
vt 0.14 -0.78 0.00
vt -0.00 -1.11 0.00
vt -0.00 -0.79 0.00
vt -0.20 -1.09 0.00
vt -0.14 -0.78 0.00
vt -0.41 -1.03 0.00
vt -0.29 -0.74 0.00
vt -0.61 -0.93 0.00
vt -0.43 -0.66 0.00
vt -0.78 -0.78 0.00
vt -0.56 -0.56 0.00
vt -0.93 -0.61 0.00
vt -0.66 -0.43 0.00
vt -1.03 -0.41 0.00
vt -0.74 -0.29 0.00
vt -1.09 -0.20 0.00
vt -0.78 -0.14 0.00
vt -1.11 0.00 0.00
vt -0.79 0.00 0.00
vt -1.09 0.20 0.00
vt 0.00 -1.11 0.00
vt -1.11 -0.00 0.00
vt -0.79 -0.00 0.00
vt 3.79 0.34 0.00
vt 3.89 2.53 0.00
vt 3.79 2.23 0.00
vt 3.63 0.34 0.00
vt 3.67 -0.00 0.00
vt 3.89 -0.00 0.00
vt 3.63 2.24 0.00
vt 3.67 2.53 0.00
vt 6.69 2.53 0.00
vt 6.91 -0.00 0.00
vt 6.91 2.53 0.00
vt 6.69 -0.00 0.00
vt 6.48 2.53 0.00
vt 6.48 -0.00 0.00
vt 6.26 2.53 0.00
vt 6.26 -0.00 0.00
vt 6.05 2.53 0.00
vt 6.05 -0.00 0.00
vt 5.83 2.53 0.00
vt 5.83 -0.00 0.00
vt 5.61 2.53 0.00
vt 5.61 -0.00 0.00
vt 5.40 2.53 0.00
vt 5.40 -0.00 0.00
vt 5.18 2.53 0.00
vt 5.18 -0.00 0.00
vt 4.97 2.53 0.00
vt 4.97 -0.00 0.00
vt 4.75 2.53 0.00
vt 4.75 -0.00 0.00
vt 4.53 2.53 0.00
vt 4.53 -0.00 0.00
vt 4.32 2.53 0.00
vt 4.32 -0.00 0.00
vt 4.10 2.53 0.00
vt 4.10 -0.00 0.00
vt -0.00 2.31 0.00
vt 2.53 0.00 0.00
vt -0.00 0.15 0.00
vt -0.00 0.00 0.00
vt 2.53 0.15 0.00
vt 2.53 0.31 0.00
vt -0.00 0.31 0.00
vt 2.53 0.46 0.00
vt -0.00 0.46 0.00
vt 2.53 0.62 0.00
vt -0.00 0.62 0.00
vt 2.53 0.77 0.00
vt -0.00 0.77 0.00
vt 2.53 0.93 0.00
vt -0.00 0.93 0.00
vt 2.53 1.08 0.00
vt -0.00 1.08 0.00
vt 2.53 1.23 0.00
vt -0.00 1.23 0.00
vt 2.53 1.39 0.00
vt -0.00 1.39 0.00
vt 2.53 1.54 0.00
vt -0.00 1.54 0.00
vt 2.53 1.70 0.00
vt -0.00 1.70 0.00
vt 2.53 1.85 0.00
vt -0.00 1.85 0.00
vt 2.53 2.01 0.00
vt -0.00 2.01 0.00
vt 2.53 2.16 0.00
vt -0.00 2.16 0.00
vt 2.53 2.31 0.00
vt -0.39 2.21 0.00
vt -1.92 0.11 0.00
vt -0.02 0.11 0.00
vt -2.29 2.21 0.00
vt -0.05 0.47 0.00
vt -0.00 0.47 0.00
vt -2.53 0.47 0.00
vt -1.95 0.47 0.00
vt -2.53 -0.00 0.00
vt 0.34 -0.34 0.00
vt 0.67 0.67 0.00
vt 1.01 0.34 0.00
vt -2.53 0.00 0.00
vt -0.00 -0.47 0.00
vt 0.00 0.00 0.00
vt -2.53 -0.47 0.00
vt 1.01 -0.34 0.00
vt 0.67 -0.67 0.00
vt 0.34 0.34 0.00
vt 0.95 2.53 0.00
vt -0.00 2.53 0.00
vt 0.95 -0.00 0.00
vt 2.53 -0.00 0.00
vt 2.37 0.89 0.00
vt 2.48 -0.00 0.00
vt 0.47 0.89 0.00
vt 0.58 -0.00 0.00
vt -0.00 0.95 0.00
vt 2.53 0.95 0.00
# 258 texture coords

g 3_DC_Shell
usemtl 01___Default
s 1
f 1/1/1 2/2/2 3/3/2 
f 4/4/3 5/5/4 6/6/4 
f 4/4/3 7/7/3 5/5/4 
f 8/8/5 7/7/3 4/4/3 
f 8/8/5 9/9/5 7/7/3 
f 10/10/6 9/9/5 8/8/5 
f 10/10/6 11/11/6 9/9/5 
f 12/12/7 11/11/6 10/10/6 
f 12/12/7 13/13/7 11/11/6 
f 14/14/8 13/13/7 12/12/7 
f 14/14/8 15/15/8 13/13/7 
f 16/16/9 15/15/8 14/14/8 
f 16/16/9 17/17/9 15/15/8 
f 18/18/10 17/17/9 16/16/9 
f 18/18/10 19/19/10 17/17/9 
f 20/20/11 19/19/10 18/18/10 
f 20/20/11 21/21/11 19/19/10 
f 22/22/12 21/21/11 20/20/11 
f 22/22/12 23/23/12 21/21/11 
f 24/24/13 23/23/12 22/22/12 
f 24/24/13 25/25/13 23/23/12 
f 26/26/14 25/25/13 24/24/13 
f 26/26/14 27/27/14 25/25/13 
f 28/28/15 27/27/14 26/26/14 
f 28/28/15 29/29/15 27/27/14 
f 30/30/16 29/29/15 28/28/15 
f 30/30/16 31/31/16 29/29/15 
f 32/32/17 31/31/16 30/30/16 
f 32/32/17 33/33/17 31/31/16 
f 34/34/1 33/33/17 32/32/17 
f 34/34/1 1/1/1 33/33/17 
f 2/2/2 1/1/1 34/34/1 
f 35/35/2 36/36/18 37/37/2 
f 38/38/18 39/39/2 40/40/2 
f 38/38/18 41/41/1 39/39/2 
f 42/42/19 41/41/1 38/38/18 
f 42/42/19 43/43/17 41/41/1 
f 44/44/4 45/45/3 46/46/4 
f 47/47/3 45/45/3 44/44/4 
f 48/48/5 45/45/3 47/47/3 
f 48/48/5 49/49/5 45/45/3 
f 50/50/6 49/49/5 48/48/5 
f 50/50/6 51/51/6 49/49/5 
f 52/52/7 51/51/6 50/50/6 
f 52/52/7 53/53/7 51/51/6 
f 54/54/8 53/53/7 52/52/7 
f 54/54/8 55/55/8 53/53/7 
f 56/56/9 55/55/8 54/54/8 
f 56/56/9 57/57/9 55/55/8 
f 58/58/10 57/57/9 56/56/9 
f 58/58/10 59/59/10 57/57/9 
f 60/60/20 59/59/10 58/58/10 
f 60/60/20 61/61/20 59/59/10 
f 62/62/12 61/61/20 60/60/20 
f 62/62/12 63/63/12 61/61/20 
f 64/64/13 63/63/12 62/62/12 
f 64/64/13 65/65/13 63/63/12 
f 66/66/14 65/65/13 64/64/13 
f 66/66/14 67/67/14 65/65/13 
f 68/68/15 67/67/14 66/66/14 
f 68/68/15 69/69/15 67/67/14 
f 70/70/16 69/69/15 68/68/15 
f 70/70/16 71/71/16 69/69/15 
f 43/43/17 71/71/16 70/70/16 
f 43/43/17 72/72/17 71/71/16 
f 42/42/19 72/72/17 43/43/17 
f 73/73/19 72/72/17 42/42/19 
f 73/73/19 74/74/1 72/72/17 
f 36/36/18 74/74/1 73/73/19 
f 36/36/18 35/35/2 74/74/1 
f 75/75/21 76/76/21 40/77/21 
f 42/78/21 76/76/21 77/79/21 
f 76/76/21 78/80/21 79/81/21 
f 38/82/21 76/76/21 42/78/21 
f 40/77/21 76/76/21 38/82/21 
f 76/76/21 75/75/21 78/80/21 
f 80/83/22 81/84/22 37/85/22 
f 82/86/22 80/83/22 83/87/22 
f 80/83/22 73/88/22 84/89/22 
f 80/83/22 36/90/22 73/88/22 
f 80/83/22 37/85/22 36/90/22 
f 81/84/22 80/83/22 82/86/22 
f 82/91/23 79/92/23 78/93/23 
f 79/92/23 82/91/23 83/94/23 
f 48/95/24 85/96/24 86/97/24 
f 86/97/24 50/98/24 48/95/24 
f 87/99/24 50/98/24 86/97/24 
f 87/99/24 52/100/24 50/98/24 
f 88/101/24 52/100/24 87/99/24 
f 88/101/24 54/102/24 52/100/24 
f 89/103/24 54/102/24 88/101/24 
f 89/103/24 56/104/24 54/102/24 
f 90/105/24 56/104/24 89/103/24 
f 90/105/24 58/106/24 56/104/24 
f 91/107/24 58/106/24 90/105/24 
f 91/107/24 60/108/24 58/106/24 
f 92/109/24 60/108/24 91/107/24 
f 92/109/24 62/110/24 60/108/24 
f 93/111/24 62/110/24 92/109/24 
f 93/111/24 64/112/24 62/110/24 
f 94/113/24 64/112/24 93/111/24 
f 94/113/24 66/114/24 64/112/24 
f 95/115/24 66/114/24 94/113/24 
f 95/115/24 68/116/24 66/114/24 
f 96/117/24 68/116/24 95/115/24 
f 96/117/24 70/118/24 68/116/24 
f 97/119/24 70/118/24 96/117/24 
f 97/119/24 43/120/24 70/118/24 
f 98/121/24 43/120/24 97/119/24 
f 98/121/24 41/122/24 43/120/24 
f 99/123/24 41/122/24 98/121/24 
f 99/123/24 39/124/24 41/122/24 
f 5/125/24 39/124/24 99/123/24 
f 5/125/24 100/126/24 39/124/24 
f 7/127/24 100/126/24 5/125/24 
f 7/127/24 101/128/24 100/126/24 
f 9/129/24 101/128/24 7/127/24 
f 9/129/24 102/130/24 101/128/24 
f 11/131/24 102/130/24 9/129/24 
f 11/131/24 103/132/24 102/130/24 
f 13/133/24 103/132/24 11/131/24 
f 13/133/24 104/134/24 103/132/24 
f 15/135/24 104/134/24 13/133/24 
f 15/135/24 105/136/24 104/134/24 
f 17/137/24 105/136/24 15/135/24 
f 17/137/24 106/138/24 105/136/24 
f 19/139/24 106/138/24 17/137/24 
f 19/139/24 107/140/24 106/138/24 
f 21/141/24 107/140/24 19/139/24 
f 21/141/24 108/142/24 107/140/24 
f 23/143/24 108/142/24 21/141/24 
f 23/143/24 109/144/24 108/142/24 
f 25/145/24 109/144/24 23/143/24 
f 25/145/24 110/146/24 109/144/24 
f 27/147/24 110/146/24 25/145/24 
f 27/147/24 111/148/24 110/146/24 
f 29/149/24 111/148/24 27/147/24 
f 29/149/24 112/150/24 111/148/24 
f 31/151/24 112/150/24 29/149/24 
f 31/151/24 113/152/24 112/150/24 
f 33/153/24 113/152/24 31/151/24 
f 33/153/24 114/154/24 113/152/24 
f 1/155/24 114/154/24 33/153/24 
f 1/155/24 44/156/24 114/154/24 
f 3/157/24 44/156/24 1/155/24 
f 3/157/24 47/158/24 44/156/24 
f 85/96/24 47/158/24 3/157/24 
f 85/96/24 48/95/24 47/158/24 
f 55/130/25 115/129/25 116/131/25 
f 116/131/25 53/132/25 55/130/25 
f 117/133/25 53/132/25 116/131/25 
f 117/133/25 51/134/25 53/132/25 
f 118/135/25 51/134/25 117/133/25 
f 118/135/25 49/136/25 51/134/25 
f 119/137/25 49/136/25 118/135/25 
f 119/137/25 45/138/25 49/136/25 
f 120/139/25 45/138/25 119/137/25 
f 120/139/25 46/159/25 45/138/25 
f 2/141/25 46/159/25 120/139/25 
f 2/141/25 121/142/25 46/159/25 
f 34/143/25 121/142/25 2/141/25 
f 34/143/25 122/144/25 121/142/25 
f 32/145/25 122/144/25 34/143/25 
f 32/145/25 123/146/25 122/144/25 
f 30/147/25 123/146/25 32/145/25 
f 30/147/25 124/148/25 123/146/25 
f 28/149/25 124/148/25 30/147/25 
f 28/149/25 125/150/25 124/148/25 
f 26/151/25 125/150/25 28/149/25 
f 26/151/25 126/152/25 125/150/25 
f 24/153/25 126/152/25 26/151/25 
f 24/153/25 127/154/25 126/152/25 
f 22/155/25 127/154/25 24/153/25 
f 22/155/25 128/160/25 127/154/25 
f 20/161/25 128/160/25 22/155/25 
f 20/161/25 129/158/25 128/160/25 
f 18/96/25 129/158/25 20/161/25 
f 18/96/25 130/95/25 129/158/25 
f 16/97/25 130/95/25 18/96/25 
f 16/97/25 131/98/25 130/95/25 
f 14/99/25 131/98/25 16/97/25 
f 14/99/25 132/100/25 131/98/25 
f 12/101/25 132/100/25 14/99/25 
f 12/101/25 133/102/25 132/100/25 
f 10/103/25 133/102/25 12/101/25 
f 10/103/25 134/104/25 133/102/25 
f 8/105/25 134/104/25 10/103/25 
f 8/105/25 135/106/25 134/104/25 
f 4/107/25 135/106/25 8/105/25 
f 4/107/25 35/108/25 135/106/25 
f 6/109/25 35/108/25 4/107/25 
f 6/109/25 74/110/25 35/108/25 
f 136/111/25 74/110/25 6/109/25 
f 136/111/25 72/112/25 74/110/25 
f 137/113/25 72/112/25 136/111/25 
f 137/113/25 71/114/25 72/112/25 
f 138/115/25 71/114/25 137/113/25 
f 138/115/25 69/116/25 71/114/25 
f 139/117/25 69/116/25 138/115/25 
f 139/117/25 67/118/25 69/116/25 
f 140/119/25 67/118/25 139/117/25 
f 140/119/25 65/120/25 67/118/25 
f 141/121/25 65/120/25 140/119/25 
f 141/121/25 63/122/25 65/120/25 
f 142/123/25 63/122/25 141/121/25 
f 142/123/25 61/124/25 63/122/25 
f 143/125/25 61/124/25 142/123/25 
f 143/125/25 59/126/25 61/124/25 
f 144/127/25 59/126/25 143/125/25 
f 144/127/25 57/128/25 59/126/25 
f 115/129/25 57/128/25 144/127/25 
f 115/129/25 55/130/25 57/128/25 
f 78/162/26 134/163/27 82/164/26 
f 39/39/2 75/165/28 40/40/2 
f 100/166/29 75/165/28 39/39/2 
f 100/166/29 78/162/26 75/165/28 
f 101/167/27 78/162/26 100/166/29 
f 81/168/28 35/35/2 37/37/2 
f 81/168/28 135/169/29 35/35/2 
f 82/164/26 135/169/29 81/168/28 
f 82/164/26 134/163/27 135/169/29 
f 121/170/30 44/171/4 46/172/4 
f 121/170/30 114/173/30 44/171/4 
f 122/174/31 114/173/30 121/170/30 
f 122/174/31 113/175/31 114/173/30 
f 123/176/32 113/175/31 122/174/31 
f 123/176/32 112/177/32 113/175/31 
f 124/178/33 112/177/32 123/176/32 
f 124/178/33 111/179/33 112/177/32 
f 125/180/34 111/179/33 124/178/33 
f 125/180/34 110/181/34 111/179/33 
f 126/182/35 110/181/34 125/180/34 
f 126/182/35 109/183/35 110/181/34 
f 127/184/36 109/183/35 126/182/35 
f 127/184/36 108/185/36 109/183/35 
f 128/186/23 108/185/36 127/184/36 
f 128/186/23 107/187/37 108/185/36 
f 129/188/38 107/187/37 128/186/23 
f 129/188/38 106/189/38 107/187/37 
f 130/190/39 106/189/38 129/188/38 
f 130/190/39 105/191/39 106/189/38 
f 131/192/40 105/191/39 130/190/39 
f 131/192/40 104/193/40 105/191/39 
f 132/194/41 104/193/40 131/192/40 
f 132/194/41 103/195/41 104/193/40 
f 133/196/42 103/195/41 132/194/41 
f 133/196/42 102/197/42 103/195/41 
f 134/163/27 102/197/42 133/196/42 
f 134/163/27 101/167/27 102/197/42 
f 134/163/27 78/162/26 101/167/27 
f 99/198/30 6/6/4 5/5/4 
f 2/199/2 85/200/29 3/201/2 
f 120/202/29 85/200/29 2/199/2 
f 119/203/27 85/200/29 120/202/29 
f 119/203/27 86/204/27 85/200/29 
f 118/205/42 86/204/27 119/203/27 
f 118/205/42 87/206/42 86/204/27 
f 117/207/41 87/206/42 118/205/42 
f 117/207/41 88/208/41 87/206/42 
f 116/209/40 88/208/41 117/207/41 
f 116/209/40 89/210/40 88/208/41 
f 115/211/39 89/210/40 116/209/40 
f 115/211/39 90/212/39 89/210/40 
f 144/213/38 90/212/39 115/211/39 
f 144/213/38 91/214/38 90/212/39 
f 143/215/37 91/214/38 144/213/38 
f 143/215/37 92/216/37 91/214/38 
f 142/217/36 92/216/37 143/215/37 
f 142/217/36 93/218/36 92/216/37 
f 141/219/35 93/218/36 142/217/36 
f 141/219/35 94/220/35 93/218/36 
f 140/221/34 94/220/35 141/219/35 
f 140/221/34 95/222/34 94/220/35 
f 139/223/33 95/222/34 140/221/34 
f 139/223/33 96/224/33 95/222/34 
f 138/225/32 96/224/33 139/223/33 
f 138/225/32 97/226/32 96/224/33 
f 137/227/31 97/226/32 138/225/32 
f 137/227/31 98/228/31 97/226/32 
f 136/229/30 98/228/31 137/227/31 
f 136/229/30 99/198/30 98/228/31 
f 6/6/4 99/198/30 136/229/30 
f 77/230/11 73/231/20 42/232/20 
f 73/231/20 77/230/11 84/233/11 
f 79/234/33 145/235/33 76/234/33 
f 146/236/33 83/237/33 80/237/33 
f 147/238/33 83/237/33 146/236/33 
f 148/44/33 83/237/33 147/238/33 
f 148/44/33 79/234/33 83/237/33 
f 145/235/33 79/234/33 148/44/33 
f 146/239/25 149/240/25 147/44/25 
f 149/240/25 146/239/25 150/241/25 
f 149/242/15 151/243/15 152/244/15 
f 151/243/15 149/242/15 150/245/15 
f 151/246/24 148/244/24 152/247/24 
f 148/244/24 151/246/24 145/248/24 
f 147/201/41 152/249/41 148/250/41 
f 152/249/41 147/201/41 149/251/41 
f 145/252/7 77/253/7 76/254/7 
f 84/255/7 146/244/7 80/256/7 
f 84/255/7 150/257/7 146/244/7 
f 84/255/7 151/258/7 150/257/7 
f 77/253/7 151/258/7 84/255/7 
f 77/253/7 145/252/7 151/258/7 
# 304 faces

