# 3ds Max Wavefront OBJ Exporter v0.97b - (c)2007 guruware
# 创建的文件:06.04.2017 11:44:52

mtllib sliderMark.mtl

#
# object NONE_DC_Shell
#

v  5.90 20.00 -32.91
v  5.45 17.00 -33.51
v  5.98 20.00 -33.46
v  5.47 17.00 -34.00
v  6.00 20.00 -34.00
v  -5.45 17.00 -33.51
v  -6.00 20.00 -34.00
v  -5.47 17.00 -34.00
v  -5.98 20.00 -33.46
v  -5.38 17.00 -33.00
v  -5.90 20.00 -32.91
v  -5.26 17.00 -32.49
v  -5.77 20.00 -32.35
v  -5.09 17.00 -31.99
v  -5.58 20.00 -31.79
v  -4.86 17.00 -31.49
v  -5.33 20.00 -31.24
v  -4.58 17.00 -31.01
v  -5.02 20.00 -30.72
v  -4.66 20.00 -30.22
v  -4.25 17.00 -30.55
v  -4.24 20.00 -29.76
v  -3.87 17.00 -30.13
v  -3.78 20.00 -29.34
v  -3.45 17.00 -29.75
v  -2.99 17.00 -29.42
v  -3.28 20.00 -28.98
v  -2.51 17.00 -29.14
v  -2.76 20.00 -28.67
v  -2.01 17.00 -28.91
v  -2.21 20.00 -28.42
v  -1.51 17.00 -28.74
v  -1.65 20.00 -28.23
v  -1.00 17.00 -28.62
v  -1.09 20.00 -28.10
v  -0.49 17.00 -28.55
v  -0.54 20.00 -28.02
v  0.00 17.00 -28.53
v  0.00 20.00 -28.00
v  0.54 20.00 -28.02
v  0.49 17.00 -28.55
v  1.09 20.00 -28.10
v  1.00 17.00 -28.62
v  1.65 20.00 -28.23
v  1.51 17.00 -28.74
v  2.21 20.00 -28.42
v  2.01 17.00 -28.91
v  2.76 20.00 -28.67
v  2.51 17.00 -29.14
v  2.99 17.00 -29.42
v  3.28 20.00 -28.98
v  3.45 17.00 -29.75
v  3.78 20.00 -29.34
v  3.87 17.00 -30.13
v  4.24 20.00 -29.76
v  4.25 17.00 -30.55
v  4.66 20.00 -30.22
v  4.58 17.00 -31.01
v  5.02 20.00 -30.72
v  4.86 17.00 -31.49
v  5.33 20.00 -31.24
v  5.09 17.00 -31.99
v  5.58 20.00 -31.79
v  5.26 17.00 -32.49
v  5.77 20.00 -32.35
v  5.38 17.00 -33.00
v  5.45 17.00 -34.49
v  -5.98 20.00 -34.54
v  -5.45 17.00 -34.49
v  -5.90 20.00 -35.09
v  -5.38 17.00 -35.00
v  -5.77 20.00 -35.65
v  -5.26 17.00 -35.51
v  -5.58 20.00 -36.21
v  -5.09 17.00 -36.01
v  -5.33 20.00 -36.76
v  -4.86 17.00 -36.51
v  -5.20 20.00 -37.00
v  -4.58 17.00 -36.99
v  -5.02 20.00 -37.28
v  -4.25 17.00 -37.45
v  -4.66 20.00 -37.78
v  -4.24 20.00 -38.24
v  -3.87 17.00 -37.87
v  -3.45 17.00 -38.25
v  -3.78 20.00 -38.66
v  -3.28 20.00 -39.02
v  -2.99 17.00 -38.58
v  -2.76 20.00 -39.33
v  -2.51 17.00 -38.86
v  -2.01 17.00 -39.09
v  -2.21 20.00 -39.58
v  -1.65 20.00 -39.77
v  -1.51 17.00 -39.26
v  -1.00 17.00 -39.38
v  -1.09 20.00 -39.90
v  -0.54 20.00 -39.98
v  -0.49 17.00 -39.45
v  0.00 20.00 -40.00
v  0.00 17.00 -39.47
v  0.54 20.00 -39.98
v  0.49 17.00 -39.45
v  1.09 20.00 -39.90
v  1.00 17.00 -39.38
v  1.65 20.00 -39.77
v  1.51 17.00 -39.26
v  2.01 17.00 -39.09
v  2.21 20.00 -39.58
v  2.76 20.00 -39.33
v  2.51 17.00 -38.86
v  3.28 20.00 -39.02
v  2.99 17.00 -38.58
v  3.45 17.00 -38.25
v  3.78 20.00 -38.66
v  4.24 20.00 -38.24
v  3.87 17.00 -37.87
v  4.66 20.00 -37.78
v  4.25 17.00 -37.45
v  4.58 17.00 -36.99
v  5.02 20.00 -37.28
v  4.86 17.00 -36.51
v  5.20 20.00 -37.00
v  5.33 20.00 -36.76
v  5.58 20.00 -36.21
v  5.09 17.00 -36.01
v  5.77 20.00 -35.65
v  5.26 17.00 -35.51
v  5.90 20.00 -35.09
v  5.38 17.00 -35.00
v  5.98 20.00 -34.54
v  2.83 17.00 -36.83
v  2.19 17.00 -37.35
v  1.47 17.00 -37.72
v  0.73 17.00 -37.93
v  0.00 17.00 -38.00
v  -0.73 17.00 -37.93
v  -1.47 17.00 -37.72
v  -2.19 17.00 -37.35
v  -2.83 17.00 -36.83
v  -3.35 17.00 -36.19
v  -3.72 17.00 -35.47
v  -3.93 17.00 -34.73
v  -4.00 17.00 -34.00
v  -3.93 17.00 -33.27
v  -3.72 17.00 -32.53
v  -3.35 17.00 -31.81
v  -2.83 17.00 -31.17
v  -2.19 17.00 -30.65
v  -1.47 17.00 -30.28
v  -0.73 17.00 -30.07
v  0.00 17.00 -30.00
v  0.73 17.00 -30.07
v  1.47 17.00 -30.28
v  2.19 17.00 -30.65
v  2.83 17.00 -31.17
v  3.35 17.00 -31.81
v  3.72 17.00 -32.53
v  3.93 17.00 -33.27
v  4.00 17.00 -34.00
v  3.93 17.00 -34.73
v  3.72 17.00 -35.47
v  3.35 17.00 -36.19
# 162 vertices

vn 0.97 -0.17 0.18
vn 0.98 -0.17 0.09
vn 0.98 -0.17 0.00
vn -0.98 -0.17 0.09
vn -0.98 -0.17 -0.00
vn -0.97 -0.17 0.18
vn -0.95 -0.17 0.27
vn -0.92 -0.17 0.36
vn -0.87 -0.17 0.45
vn -0.82 -0.17 0.54
vn -0.76 -0.17 0.62
vn -0.70 -0.17 0.70
vn -0.62 -0.17 0.76
vn -0.54 -0.17 0.82
vn -0.45 -0.17 0.87
vn -0.36 -0.17 0.92
vn -0.27 -0.17 0.95
vn -0.18 -0.17 0.97
vn -0.09 -0.17 0.98
vn -0.00 -0.17 0.98
vn 0.09 -0.17 0.98
vn 0.18 -0.17 0.97
vn 0.27 -0.17 0.95
vn 0.36 -0.17 0.92
vn 0.45 -0.17 0.87
vn 0.54 -0.17 0.82
vn 0.62 -0.17 0.76
vn 0.70 -0.17 0.70
vn 0.76 -0.17 0.62
vn 0.82 -0.17 0.54
vn 0.87 -0.17 0.45
vn 0.92 -0.17 0.36
vn 0.95 -0.17 0.27
vn 0.98 -0.17 -0.09
vn -0.98 -0.17 -0.09
vn -0.97 -0.17 -0.18
vn -0.95 -0.17 -0.27
vn -0.92 -0.17 -0.36
vn -0.87 -0.17 -0.45
vn -0.85 -0.17 -0.49
vn -0.82 -0.17 -0.54
vn -0.76 -0.17 -0.62
vn -0.70 -0.17 -0.70
vn -0.62 -0.17 -0.76
vn -0.54 -0.17 -0.82
vn -0.45 -0.17 -0.87
vn -0.36 -0.17 -0.92
vn -0.27 -0.17 -0.95
vn -0.18 -0.17 -0.97
vn -0.09 -0.17 -0.98
vn 0.00 -0.17 -0.98
vn 0.09 -0.17 -0.98
vn 0.18 -0.17 -0.97
vn 0.27 -0.17 -0.95
vn 0.36 -0.17 -0.92
vn 0.45 -0.17 -0.87
vn 0.54 -0.17 -0.82
vn 0.62 -0.17 -0.76
vn 0.70 -0.17 -0.70
vn 0.76 -0.17 -0.62
vn 0.82 -0.17 -0.54
vn 0.87 -0.17 -0.45
vn 0.85 -0.17 -0.49
vn 0.92 -0.17 -0.36
vn 0.95 -0.17 -0.27
vn 0.97 -0.17 -0.18
vn 0.00 -1.00 -0.00
vn -0.00 -1.00 -0.00
# 68 vertex normals

vt 5.84 -6.77 0.00
vt 6.04 -7.83 0.00
vt 6.04 -6.77 0.00
vt 6.23 -7.83 0.00
vt 6.23 -6.77 0.00
vt 0.19 -7.83 0.00
vt 0.00 -6.77 0.00
vt 0.00 -7.83 0.00
vt 0.19 -6.77 0.00
vt 0.39 -7.83 0.00
vt 0.39 -6.77 0.00
vt 0.58 -7.83 0.00
vt 0.58 -6.77 0.00
vt 0.78 -7.83 0.00
vt 0.78 -6.77 0.00
vt 0.97 -7.83 0.00
vt 0.97 -6.77 0.00
vt 1.17 -7.83 0.00
vt 1.17 -6.77 0.00
vt 1.36 -6.77 0.00
vt 1.36 -7.83 0.00
vt 1.56 -6.77 0.00
vt 1.56 -7.83 0.00
vt 1.75 -6.77 0.00
vt 1.75 -7.83 0.00
vt 1.95 -7.83 0.00
vt 1.95 -6.77 0.00
vt 2.14 -7.83 0.00
vt 2.14 -6.77 0.00
vt 2.34 -7.83 0.00
vt 2.34 -6.77 0.00
vt 2.53 -7.83 0.00
vt 2.53 -6.77 0.00
vt 2.73 -7.83 0.00
vt 2.73 -6.77 0.00
vt 2.92 -7.83 0.00
vt 2.92 -6.77 0.00
vt 3.12 -7.83 0.00
vt 3.12 -6.77 0.00
vt 3.31 -6.77 0.00
vt 3.31 -7.83 0.00
vt 3.51 -6.77 0.00
vt 3.51 -7.83 0.00
vt 3.70 -6.77 0.00
vt 3.70 -7.83 0.00
vt 3.90 -6.77 0.00
vt 3.90 -7.83 0.00
vt 4.09 -6.77 0.00
vt 4.09 -7.83 0.00
vt 4.29 -7.83 0.00
vt 4.29 -6.77 0.00
vt 4.48 -7.83 0.00
vt 4.48 -6.77 0.00
vt 4.67 -7.83 0.00
vt 4.67 -6.77 0.00
vt 4.87 -7.83 0.00
vt 4.87 -6.77 0.00
vt 5.06 -7.83 0.00
vt 5.06 -6.77 0.00
vt 5.26 -7.83 0.00
vt 5.26 -6.77 0.00
vt 5.45 -7.83 0.00
vt 5.45 -6.77 0.00
vt 5.65 -7.83 0.00
vt 5.65 -6.77 0.00
vt 5.84 -7.83 0.00
vt 6.43 -7.83 0.00
vt 12.27 -6.77 0.00
vt 12.47 -7.83 0.00
vt 12.47 -6.77 0.00
vt 12.27 -7.83 0.00
vt 12.08 -6.77 0.00
vt 12.08 -7.83 0.00
vt 11.88 -6.77 0.00
vt 11.88 -7.83 0.00
vt 11.69 -6.77 0.00
vt 11.69 -7.83 0.00
vt 11.49 -6.77 0.00
vt 11.49 -7.83 0.00
vt 11.40 -6.77 0.00
vt 11.30 -7.83 0.00
vt 11.30 -6.77 0.00
vt 11.10 -7.83 0.00
vt 11.10 -6.77 0.00
vt 10.91 -6.77 0.00
vt 10.91 -7.83 0.00
vt 10.71 -7.83 0.00
vt 10.71 -6.77 0.00
vt 10.52 -6.77 0.00
vt 10.52 -7.83 0.00
vt 10.32 -6.77 0.00
vt 10.32 -7.83 0.00
vt 10.13 -7.83 0.00
vt 10.13 -6.77 0.00
vt 9.93 -6.77 0.00
vt 9.93 -7.83 0.00
vt 9.74 -7.83 0.00
vt 9.74 -6.77 0.00
vt 9.54 -6.77 0.00
vt 9.54 -7.83 0.00
vt 9.35 -6.77 0.00
vt 9.35 -7.83 0.00
vt 9.15 -6.77 0.00
vt 9.15 -7.83 0.00
vt 8.96 -6.77 0.00
vt 8.96 -7.83 0.00
vt 8.76 -6.77 0.00
vt 8.76 -7.83 0.00
vt 8.57 -7.83 0.00
vt 8.57 -6.77 0.00
vt 8.38 -6.77 0.00
vt 8.38 -7.83 0.00
vt 8.18 -6.77 0.00
vt 8.18 -7.83 0.00
vt 7.99 -7.83 0.00
vt 7.99 -6.77 0.00
vt 7.79 -6.77 0.00
vt 7.79 -7.83 0.00
vt 7.60 -6.77 0.00
vt 7.60 -7.83 0.00
vt 7.40 -7.83 0.00
vt 7.40 -6.77 0.00
vt 7.21 -7.83 0.00
vt 7.30 -6.77 0.00
vt 7.21 -6.77 0.00
vt 7.01 -6.77 0.00
vt 7.01 -7.83 0.00
vt 6.82 -6.77 0.00
vt 6.82 -7.83 0.00
vt 6.62 -6.77 0.00
vt 6.62 -7.83 0.00
vt 6.43 -6.77 0.00
vt -1.48 1.20 0.00
vt -0.98 0.98 0.00
vt -1.35 1.35 0.00
vt -1.20 1.48 0.00
vt -0.76 1.17 0.00
vt -1.04 1.59 0.00
vt -0.87 1.69 0.00
vt -0.51 1.29 0.00
vt -0.70 1.77 0.00
vt -0.52 1.83 0.00
vt -0.25 1.37 0.00
vt -0.17 1.90 0.00
vt 0.00 1.39 0.00
vt 0.17 1.90 0.00
vt 0.25 1.37 0.00
vt 0.52 1.83 0.00
vt 0.51 1.29 0.00
vt 0.70 1.77 0.00
vt 0.87 1.69 0.00
vt 0.76 1.17 0.00
vt 1.04 1.59 0.00
vt 1.20 1.48 0.00
vt 0.98 0.98 0.00
vt 1.35 1.35 0.00
vt 1.48 1.20 0.00
vt 1.17 0.76 0.00
vt 1.59 1.04 0.00
vt 1.69 0.87 0.00
vt 1.29 0.51 0.00
vt 1.77 0.70 0.00
vt 1.83 0.52 0.00
vt 1.37 0.25 0.00
vt 1.87 0.35 0.00
vt 1.90 -0.00 0.00
vt 1.39 -0.00 0.00
vt 1.87 -0.35 0.00
vt 1.37 -0.25 0.00
vt 1.83 -0.52 0.00
vt 1.29 -0.51 0.00
vt 1.77 -0.70 0.00
vt 1.69 -0.87 0.00
vt 1.17 -0.76 0.00
vt 1.59 -1.04 0.00
vt 1.48 -1.20 0.00
vt 0.98 -0.98 0.00
vt 1.35 -1.35 0.00
vt 1.20 -1.48 0.00
vt 0.76 -1.17 0.00
vt 1.04 -1.59 0.00
vt 0.87 -1.69 0.00
vt 0.51 -1.29 0.00
vt 0.70 -1.77 0.00
vt 0.52 -1.83 0.00
vt 0.25 -1.37 0.00
vt 0.17 -1.90 0.00
vt 0.00 -1.39 0.00
vt -0.17 -1.90 0.00
vt -0.25 -1.37 0.00
vt -0.52 -1.83 0.00
vt -0.51 -1.29 0.00
vt -0.70 -1.77 0.00
vt -0.87 -1.69 0.00
vt -0.76 -1.17 0.00
vt -1.04 -1.59 0.00
vt -1.20 -1.48 0.00
vt -0.98 -0.98 0.00
vt -1.35 -1.35 0.00
vt -1.48 -1.20 0.00
vt -1.17 -0.76 0.00
vt -1.59 -1.04 0.00
vt -1.69 -0.87 0.00
vt -1.29 -0.51 0.00
vt -1.77 -0.70 0.00
vt -1.83 -0.52 0.00
vt -1.37 -0.25 0.00
vt -1.87 -0.35 0.00
vt -1.90 0.00 0.00
vt -1.39 -0.00 0.00
vt -1.87 0.35 0.00
vt -1.37 0.25 0.00
vt -1.83 0.52 0.00
vt -1.29 0.51 0.00
vt -1.77 0.70 0.00
vt -1.69 0.87 0.00
vt -1.17 0.76 0.00
vt -1.59 1.04 0.00
# 218 texture coords

g NONE_DC_Shell
usemtl wire_000255255
s 1
f 1/1/1 2/2/2 3/3/2 
f 3/3/2 4/4/3 5/5/3 
f 3/3/2 2/2/2 4/4/3 
f 6/6/4 7/7/5 8/8/5 
f 6/6/4 9/9/4 7/7/5 
f 10/10/6 9/9/4 6/6/4 
f 10/10/6 11/11/6 9/9/4 
f 12/12/7 11/11/6 10/10/6 
f 12/12/7 13/13/7 11/11/6 
f 14/14/8 13/13/7 12/12/7 
f 14/14/8 15/15/8 13/13/7 
f 16/16/9 15/15/8 14/14/8 
f 16/16/9 17/17/9 15/15/8 
f 18/18/10 17/17/9 16/16/9 
f 18/18/10 19/19/10 17/17/9 
f 18/18/10 20/20/11 19/19/10 
f 21/21/11 20/20/11 18/18/10 
f 21/21/11 22/22/12 20/20/11 
f 23/23/12 22/22/12 21/21/11 
f 23/23/12 24/24/13 22/22/12 
f 25/25/13 24/24/13 23/23/12 
f 26/26/14 24/24/13 25/25/13 
f 26/26/14 27/27/14 24/24/13 
f 28/28/15 27/27/14 26/26/14 
f 28/28/15 29/29/15 27/27/14 
f 30/30/16 29/29/15 28/28/15 
f 30/30/16 31/31/16 29/29/15 
f 32/32/17 31/31/16 30/30/16 
f 32/32/17 33/33/17 31/31/16 
f 34/34/18 33/33/17 32/32/17 
f 34/34/18 35/35/18 33/33/17 
f 36/36/19 35/35/18 34/34/18 
f 36/36/19 37/37/19 35/35/18 
f 38/38/20 37/37/19 36/36/19 
f 38/38/20 39/39/20 37/37/19 
f 38/38/20 40/40/21 39/39/20 
f 41/41/21 40/40/21 38/38/20 
f 41/41/21 42/42/22 40/40/21 
f 43/43/22 42/42/22 41/41/21 
f 43/43/22 44/44/23 42/42/22 
f 45/45/23 44/44/23 43/43/22 
f 45/45/23 46/46/24 44/44/23 
f 47/47/24 46/46/24 45/45/23 
f 47/47/24 48/48/25 46/46/24 
f 49/49/25 48/48/25 47/47/24 
f 50/50/26 48/48/25 49/49/25 
f 50/50/26 51/51/26 48/48/25 
f 52/52/27 51/51/26 50/50/26 
f 52/52/27 53/53/27 51/51/26 
f 54/54/28 53/53/27 52/52/27 
f 54/54/28 55/55/28 53/53/27 
f 56/56/29 55/55/28 54/54/28 
f 56/56/29 57/57/29 55/55/28 
f 58/58/30 57/57/29 56/56/29 
f 58/58/30 59/59/30 57/57/29 
f 60/60/31 59/59/30 58/58/30 
f 60/60/31 61/61/31 59/59/30 
f 62/62/32 61/61/31 60/60/31 
f 62/62/32 63/63/32 61/61/31 
f 64/64/33 63/63/32 62/62/32 
f 64/64/33 65/65/33 63/63/32 
f 66/66/1 65/65/33 64/64/33 
f 66/66/1 1/1/1 65/65/33 
f 2/2/2 1/1/1 66/66/1 
f 67/67/34 5/5/3 4/4/3 
f 68/68/35 8/69/5 7/70/5 
f 68/68/35 69/71/35 8/69/5 
f 70/72/36 69/71/35 68/68/35 
f 70/72/36 71/73/36 69/71/35 
f 72/74/37 71/73/36 70/72/36 
f 72/74/37 73/75/37 71/73/36 
f 74/76/38 73/75/37 72/74/37 
f 74/76/38 75/77/38 73/75/37 
f 76/78/39 75/77/38 74/76/38 
f 76/78/39 77/79/39 75/77/38 
f 78/80/40 77/79/39 76/78/39 
f 78/80/40 79/81/41 77/79/39 
f 80/82/41 79/81/41 78/80/40 
f 80/82/41 81/83/42 79/81/41 
f 82/84/42 81/83/42 80/82/41 
f 83/85/43 81/83/42 82/84/42 
f 83/85/43 84/86/43 81/83/42 
f 83/85/43 85/87/44 84/86/43 
f 86/88/44 85/87/44 83/85/43 
f 87/89/45 85/87/44 86/88/44 
f 87/89/45 88/90/45 85/87/44 
f 89/91/46 88/90/45 87/89/45 
f 89/91/46 90/92/46 88/90/45 
f 89/91/46 91/93/47 90/92/46 
f 92/94/47 91/93/47 89/91/46 
f 93/95/48 91/93/47 92/94/47 
f 93/95/48 94/96/48 91/93/47 
f 93/95/48 95/97/49 94/96/48 
f 96/98/49 95/97/49 93/95/48 
f 97/99/50 95/97/49 96/98/49 
f 97/99/50 98/100/50 95/97/49 
f 99/101/51 98/100/50 97/99/50 
f 99/101/51 100/102/51 98/100/50 
f 101/103/52 100/102/51 99/101/51 
f 101/103/52 102/104/52 100/102/51 
f 103/105/53 102/104/52 101/103/52 
f 103/105/53 104/106/53 102/104/52 
f 105/107/54 104/106/53 103/105/53 
f 105/107/54 106/108/54 104/106/53 
f 105/107/54 107/109/55 106/108/54 
f 108/110/55 107/109/55 105/107/54 
f 109/111/56 107/109/55 108/110/55 
f 109/111/56 110/112/56 107/109/55 
f 111/113/57 110/112/56 109/111/56 
f 111/113/57 112/114/57 110/112/56 
f 111/113/57 113/115/58 112/114/57 
f 114/116/58 113/115/58 111/113/57 
f 115/117/59 113/115/58 114/116/58 
f 115/117/59 116/118/59 113/115/58 
f 117/119/60 116/118/59 115/117/59 
f 117/119/60 118/120/60 116/118/59 
f 117/119/60 119/121/61 118/120/60 
f 120/122/61 119/121/61 117/119/60 
f 120/122/61 121/123/62 119/121/61 
f 122/124/63 121/123/62 120/122/61 
f 123/125/62 121/123/62 122/124/63 
f 124/126/64 121/123/62 123/125/62 
f 124/126/64 125/127/64 121/123/62 
f 126/128/65 125/127/64 124/126/64 
f 126/128/65 127/129/65 125/127/64 
f 128/130/66 127/129/65 126/128/65 
f 128/130/66 129/131/66 127/129/65 
f 128/130/66 67/67/34 129/131/66 
f 130/132/34 67/67/34 128/130/66 
f 5/5/3 67/67/34 130/132/34 
f 118/133/67 131/134/68 116/135/67 
f 131/134/68 113/136/67 116/135/67 
f 132/137/67 113/136/67 131/134/68 
f 132/137/67 112/138/67 113/136/67 
f 132/137/67 110/139/67 112/138/67 
f 133/140/67 110/139/67 132/137/67 
f 133/140/67 107/141/67 110/139/67 
f 133/140/67 106/142/67 107/141/67 
f 134/143/67 106/142/67 133/140/67 
f 134/143/67 102/144/67 106/142/67 
f 135/145/67 102/144/67 134/143/67 
f 135/145/67 98/146/67 102/144/67 
f 136/147/67 98/146/67 135/145/67 
f 136/147/67 94/148/67 98/146/67 
f 137/149/67 94/148/67 136/147/67 
f 137/149/67 91/150/67 94/148/67 
f 137/149/67 90/151/67 91/150/67 
f 138/152/67 90/151/67 137/149/67 
f 138/152/67 88/153/67 90/151/67 
f 138/152/67 85/154/67 88/153/67 
f 139/155/67 85/154/67 138/152/67 
f 139/155/67 84/156/67 85/154/67 
f 139/155/67 81/157/67 84/156/67 
f 140/158/67 81/157/67 139/155/67 
f 140/158/67 79/159/68 81/157/67 
f 140/158/67 77/160/67 79/159/68 
f 141/161/67 77/160/67 140/158/67 
f 141/161/67 75/162/67 77/160/67 
f 141/161/67 73/163/67 75/162/67 
f 142/164/67 73/163/67 141/161/67 
f 142/164/67 71/165/68 73/163/67 
f 142/164/67 8/166/67 71/165/68 
f 143/167/67 8/166/67 142/164/67 
f 143/167/67 10/168/67 8/166/67 
f 144/169/67 10/168/67 143/167/67 
f 144/169/67 12/170/67 10/168/67 
f 145/171/67 12/170/67 144/169/67 
f 145/171/67 14/172/67 12/170/67 
f 145/171/67 16/173/67 14/172/67 
f 146/174/68 16/173/67 145/171/67 
f 146/174/68 18/175/67 16/173/67 
f 146/174/68 21/176/67 18/175/67 
f 147/177/68 21/176/67 146/174/68 
f 147/177/68 23/178/68 21/176/67 
f 147/177/68 25/179/68 23/178/68 
f 148/180/67 25/179/68 147/177/68 
f 148/180/67 26/181/67 25/179/68 
f 148/180/67 28/182/68 26/181/67 
f 149/183/67 28/182/68 148/180/67 
f 149/183/67 30/184/68 28/182/68 
f 149/183/67 32/185/67 30/184/68 
f 150/186/68 32/185/67 149/183/67 
f 150/186/68 36/187/67 32/185/67 
f 151/188/67 36/187/67 150/186/68 
f 151/188/67 41/189/67 36/187/67 
f 152/190/68 41/189/67 151/188/67 
f 152/190/68 45/191/67 41/189/67 
f 153/192/67 45/191/67 152/190/68 
f 153/192/67 47/193/68 45/191/67 
f 153/192/67 49/194/68 47/193/68 
f 154/195/67 49/194/68 153/192/67 
f 154/195/67 50/196/67 49/194/68 
f 154/195/67 52/197/68 50/196/67 
f 155/198/68 52/197/68 154/195/67 
f 155/198/68 54/199/67 52/197/68 
f 155/198/68 56/200/67 54/199/67 
f 156/201/68 56/200/67 155/198/68 
f 156/201/68 58/202/67 56/200/67 
f 156/201/68 60/203/67 58/202/67 
f 157/204/67 60/203/67 156/201/68 
f 157/204/67 62/205/67 60/203/67 
f 157/204/67 64/206/67 62/205/67 
f 158/207/67 64/206/67 157/204/67 
f 158/207/67 66/208/67 64/206/67 
f 158/207/67 4/209/67 66/208/67 
f 159/210/67 4/209/67 158/207/67 
f 159/210/67 129/211/67 4/209/67 
f 160/212/67 129/211/67 159/210/67 
f 160/212/67 127/213/67 129/211/67 
f 161/214/67 127/213/67 160/212/67 
f 161/214/67 125/215/67 127/213/67 
f 161/214/67 121/216/67 125/215/67 
f 162/217/67 121/216/67 161/214/67 
f 162/217/67 119/218/67 121/216/67 
f 162/217/67 118/133/67 119/218/67 
f 131/134/68 118/133/67 162/217/67 
# 216 faces

