# 3ds Max Wavefront OBJ Exporter v0.97b - (c)2007 guruware
# 创建的文件:30.05.2017 17:04:15

mtllib base1.mtl

#
# object NONE_DC_Shell
#

v  -105.00 -46.26 0.50
v  -85.00 -46.26 -0.50
v  -85.00 -46.26 0.50
v  -105.00 -46.26 -0.50
v  -105.00 -41.26 -10.00
v  -105.00 -46.26 -10.00
v  -105.00 -46.26 10.00
v  -105.00 -41.26 10.00
v  -85.00 -46.26 10.00
v  -85.00 -41.26 10.00
v  -85.00 -41.26 -2.50
v  -85.00 -46.26 -10.00
v  -85.00 -41.26 -10.00
v  -85.00 -41.26 2.50
v  -85.00 -4.99 -2.50
v  -85.00 -4.99 2.50
v  -90.00 -41.26 2.50
v  -90.00 -41.26 -2.50
v  -84.00 -3.26 -2.50
v  -84.00 -3.26 2.50
v  -84.00 8.74 2.50
v  -84.00 8.74 -2.50
v  -85.23 8.61 -2.50
v  -90.00 2.74 2.50
v  -89.87 3.97 -2.50
v  -90.00 2.74 -2.50
v  -89.87 3.97 2.50
v  -89.51 5.12 2.50
v  -89.51 5.12 -2.50
v  -88.94 6.14 -2.50
v  -88.94 6.14 2.50
v  -88.24 6.98 2.50
v  -88.24 6.98 -2.50
v  -87.40 7.68 -2.50
v  -87.40 7.68 2.50
v  -86.38 8.24 2.50
v  -86.38 8.24 -2.50
v  -85.23 8.61 2.50
v  -85.09 8.64 2.50
v  -86.21 8.32 2.50
v  -87.28 7.76 2.50
v  -89.02 6.02 2.50
v  -89.58 4.95 2.50
v  -89.90 3.83 2.50
v  -85.09 8.64 -2.50
v  -86.21 8.32 -2.50
v  -87.28 7.76 -2.50
v  -89.02 6.02 -2.50
v  -89.58 4.95 -2.50
v  -89.90 3.83 -2.50
# 50 vertices

vn 0.00 -1.00 -0.00
vn -1.00 0.00 -0.00
vn -1.00 0.00 0.00
vn 0.00 -0.00 1.00
vn 1.00 0.00 0.00
vn 1.00 -0.00 -0.00
vn 1.00 0.00 -0.00
vn 0.00 0.00 -1.00
vn 0.00 1.00 0.00
vn -0.00 1.00 0.00
vn 0.87 -0.50 -0.00
vn -0.20 0.98 0.00
vn -0.98 0.20 0.00
vn -0.92 0.40 0.00
vn -0.82 0.57 0.00
vn -0.71 0.71 0.00
vn -0.57 0.82 0.00
vn -0.40 0.92 0.00
# 18 vertex normals

vt -0.05 -9.64 0.00
vt 0.05 -7.71 0.00
vt -0.05 -7.71 0.00
vt 0.05 -9.64 0.00
vt -0.48 1.01 0.00
vt 0.00 1.93 0.00
vt -0.48 1.93 0.00
vt -0.48 0.00 0.00
vt 0.00 0.00 0.00
vt -0.48 0.92 0.00
vt 0.00 -0.00 0.00
vt -0.48 -1.93 0.00
vt 0.00 -1.93 0.00
vt -0.48 -0.00 0.00
vt -0.00 -1.21 0.00
vt -0.00 -1.93 0.00
vt -0.00 -0.72 0.00
vt 3.50 -1.21 0.00
vt 3.50 -0.72 0.00
vt -0.00 0.00 0.00
vt -0.48 -0.92 0.00
vt -0.48 -1.01 0.00
vt -8.19 -0.24 0.00
vt -7.71 -0.96 0.00
vt -7.71 -0.24 0.00
vt -7.71 0.96 0.00
vt -8.19 0.24 0.00
vt -7.71 0.24 0.00
vt -9.64 0.96 0.00
vt -9.64 -0.96 0.00
vt -0.00 -0.00 0.00
vt -0.48 -0.19 0.00
vt 0.00 -0.19 0.00
vt -0.00 -0.48 0.00
vt 1.16 0.00 0.00
vt 1.16 -0.48 0.00
vt 0.79 0.48 0.00
vt 0.90 -0.00 0.00
vt 0.90 0.48 0.00
vt 0.11 0.48 0.00
vt 0.00 0.48 0.00
vt 0.11 -0.00 0.00
vt 0.23 -0.00 0.00
vt 0.23 0.48 0.00
vt 0.34 0.48 0.00
vt 0.34 -0.00 0.00
vt 0.45 -0.00 0.00
vt 0.45 0.48 0.00
vt 0.56 0.48 0.00
vt 0.56 -0.00 0.00
vt 0.68 -0.00 0.00
vt 0.68 0.48 0.00
vt 0.79 -0.00 0.00
vt -0.00 0.48 0.00
vt -4.25 -0.00 0.00
vt -4.25 0.48 0.00
vt 0.00 0.58 0.00
vt -0.75 0.10 0.00
vt -0.58 -0.00 0.00
vt 0.57 0.11 0.00
vt 0.58 -0.00 0.00
vt 0.54 0.21 0.00
vt 0.48 0.32 0.00
vt 0.41 0.41 0.00
vt 0.32 0.48 0.00
vt 0.21 0.54 0.00
vt 0.11 0.57 0.00
vt -4.25 0.58 0.00
vt -4.25 0.10 0.00
vt 0.10 -0.75 0.00
vt 0.58 0.00 0.00
vt -0.00 -0.58 0.00
vt -0.00 0.58 0.00
vt 0.10 -4.25 0.00
vt 0.58 -4.25 0.00
# 75 texture coords

g NONE_DC_Shell
usemtl wire_000255255
s 1
f 1/1/1 2/2/1 3/3/1 
f 2/2/1 1/1/1 4/4/1 
f 4/5/2 5/6/2 6/7/2 
f 5/6/2 7/8/3 8/9/3 
f 5/6/2 1/10/2 7/8/3 
f 5/6/2 4/5/2 1/10/2 
f 8/11/4 9/12/4 10/13/4 
f 9/12/4 8/11/4 7/14/4 
f 11/15/5 12/12/6 13/16/6 
f 14/17/7 15/18/5 16/19/5 
f 14/17/7 11/15/5 15/18/5 
f 9/14/7 14/17/7 10/20/7 
f 3/21/7 14/17/7 9/14/7 
f 3/21/7 11/15/5 14/17/7 
f 2/22/7 11/15/5 3/21/7 
f 12/12/6 11/15/5 2/22/7 
f 12/7/8 5/9/8 13/6/8 
f 5/9/8 12/7/8 6/8/8 
f 17/23/9 10/24/9 14/25/9 
f 13/26/9 18/27/9 11/28/10 
f 5/29/9 18/27/9 13/26/9 
f 8/30/9 18/27/9 5/29/9 
f 8/30/9 17/23/9 18/27/9 
f 10/24/9 17/23/9 8/30/9 
f 16/31/11 19/32/11 20/33/11 
f 19/32/11 16/31/11 15/14/11 
f 19/34/5 21/35/7 20/31/7 
f 21/35/7 19/34/5 22/36/5 
f 23/37/12 21/38/10 22/39/10 
f 24/11/3 25/40/13 26/41/2 
f 27/42/13 25/40/13 24/11/3 
f 28/43/14 25/40/13 27/42/13 
f 28/43/14 29/44/14 25/40/13 
f 28/43/14 30/45/15 29/44/14 
f 31/46/15 30/45/15 28/43/14 
f 32/47/16 30/45/15 31/46/15 
f 32/47/16 33/48/16 30/45/15 
f 32/47/16 34/49/17 33/48/16 
f 35/50/17 34/49/17 32/47/16 
f 36/51/18 34/49/17 35/50/17 
f 36/51/18 37/52/18 34/49/17 
f 38/53/12 37/52/18 36/51/18 
f 38/53/12 23/37/12 37/52/18 
f 21/38/10 23/37/12 38/53/12 
f 26/54/2 17/55/3 24/31/3 
f 17/55/3 26/54/2 18/56/2 
f 24/57/4 16/58/4 20/59/4 
f 39/60/4 20/59/4 21/61/4 
f 40/62/4 20/59/4 39/60/4 
f 41/63/4 20/59/4 40/62/4 
f 32/64/4 20/59/4 41/63/4 
f 42/65/4 20/59/4 32/64/4 
f 43/66/4 20/59/4 42/65/4 
f 44/67/4 20/59/4 43/66/4 
f 24/57/4 20/59/4 44/67/4 
f 16/58/4 17/68/4 14/69/4 
f 16/58/4 24/57/4 17/68/4 
f 15/70/8 26/71/8 19/72/8 
f 19/72/8 45/67/8 22/73/8 
f 19/72/8 46/66/8 45/67/8 
f 19/72/8 47/65/8 46/66/8 
f 19/72/8 33/64/8 47/65/8 
f 19/72/8 48/63/8 33/64/8 
f 19/72/8 49/62/8 48/63/8 
f 19/72/8 50/60/8 49/62/8 
f 19/72/8 26/71/8 50/60/8 
f 26/71/8 11/74/8 18/75/8 
f 26/71/8 15/70/8 11/74/8 
# 68 faces

#
# object NONE_DC_Shell
#

v  -5.50 -21.35 9.00
v  -5.50 -43.35 -9.00
v  -5.50 -21.35 -9.00
v  -5.50 -43.35 9.00
v  -8.00 -21.35 -9.00
v  -8.00 -30.15 -7.50
v  -8.00 -21.35 -7.50
v  -8.00 -30.15 7.50
v  -8.00 -21.35 9.00
v  -8.00 -21.35 7.50
v  -8.00 -46.35 9.00
v  -8.00 -46.35 -9.00
v  4.50 -46.35 -9.00
v  4.50 -43.35 -9.00
v  4.50 -46.35 9.00
v  4.50 -43.35 9.00
# 16 vertices

vn 1.00 -0.00 -0.00
vn 1.00 0.00 0.00
vn -1.00 0.00 -0.00
vn -1.00 0.00 0.00
vn 0.00 0.00 -1.00
vn 0.00 1.00 0.00
vn -0.00 1.00 0.00
vn -0.00 -0.00 1.00
vn -0.00 -1.00 -0.00
vn 0.00 -1.00 -0.00
# 10 vertex normals

vt -3.19 1.62 0.00
vt -7.16 -1.62 0.00
vt -3.19 -1.62 0.00
vt -7.16 1.62 0.00
vt -1.62 -3.19 0.00
vt -1.35 -4.78 0.00
vt -1.35 -3.19 0.00
vt 1.35 -4.78 0.00
vt 1.62 -3.19 0.00
vt 1.35 -3.19 0.00
vt 1.62 -7.71 0.00
vt -1.62 -7.71 0.00
vt -0.00 1.80 0.00
vt 0.54 0.00 0.00
vt 0.54 1.80 0.00
vt 4.51 0.00 0.00
vt -0.00 -0.45 0.00
vt 4.51 -0.45 0.00
vt 0.45 -2.98 0.00
vt -0.00 -3.25 0.00
vt 0.45 -3.25 0.00
vt -0.00 0.00 0.00
vt 0.45 -0.27 0.00
vt 0.45 0.00 0.00
vt 4.51 0.45 0.00
vt -0.00 -1.80 0.00
vt 0.54 -1.80 0.00
vt -0.00 0.45 0.00
vt -1.80 3.25 0.00
vt -1.80 -0.00 0.00
vt 0.45 3.25 0.00
vt 1.80 -3.25 0.00
vt 0.00 0.00 0.00
vt 0.00 -3.25 0.00
vt 1.80 -0.00 0.00
vt -7.71 -1.62 0.00
vt -7.71 1.62 0.00
# 37 texture coords

g NONE_DC_Shell
usemtl wire_000255255
s 1
f 51/76/19 52/77/20 53/78/20 
f 52/77/20 51/76/19 54/79/19 
f 55/80/21 56/81/21 57/82/21 
f 58/83/21 59/84/21 60/85/21 
f 58/83/21 61/86/22 59/84/21 
f 58/83/21 62/87/22 61/86/22 
f 56/81/21 62/87/22 58/83/21 
f 56/81/21 55/80/21 62/87/22 
f 63/88/23 52/89/23 64/90/23 
f 53/91/23 62/92/23 55/93/23 
f 52/89/23 62/92/23 53/91/23 
f 52/89/23 63/88/23 62/92/23 
f 57/94/24 53/95/25 55/96/25 
f 51/97/24 60/98/24 59/99/24 
f 53/95/25 60/98/24 51/97/24 
f 53/95/25 57/94/24 60/98/24 
f 59/100/26 54/89/26 51/91/26 
f 54/89/26 65/101/26 66/102/26 
f 54/89/26 61/103/26 65/101/26 
f 54/89/26 59/100/26 61/103/26 
f 61/99/27 63/104/27 65/105/28 
f 63/104/27 61/99/27 62/106/27 
f 52/107/24 66/108/24 64/109/25 
f 66/108/24 52/107/24 54/110/24 
f 66/79/19 63/111/19 64/77/19 
f 63/111/19 66/79/19 65/112/19 
# 26 faces

#
# object NONE_DC_Shell
#

v  -8.00 -21.35 7.50
v  -8.00 -20.15 -7.50
v  -8.00 -20.15 7.50
v  -8.00 -21.35 -7.50
v  -8.00 -30.15 -7.50
v  -10.00 -30.15 7.50
v  -10.00 -30.15 -7.50
v  -8.00 -30.15 7.50
v  -5.00 -0.15 -7.50
v  -5.00 -20.15 -7.50
v  -10.00 -0.15 -7.50
v  -5.00 -0.15 7.50
v  -5.00 -20.15 7.50
v  -10.00 -0.15 7.50
v  -10.00 -0.15 6.00
v  -5.00 -0.15 6.00
v  -10.00 -7.29 1.00
v  -5.00 -7.29 1.00
v  -10.00 -9.29 1.00
v  -5.00 -9.29 1.00
v  -5.00 -9.29 -1.00
v  -10.00 -9.29 -1.00
v  -10.00 -7.29 -1.00
v  -5.00 -7.29 -1.00
v  -5.00 -0.15 -6.00
v  -10.00 -0.15 -6.00
# 26 vertices

vn 1.00 -0.00 0.00
vn 1.00 -0.00 -0.00
vn -0.00 -1.00 -0.00
vn 0.00 -1.00 -0.00
vn 0.00 0.00 -1.00
vn -0.00 -0.00 1.00
vn 0.00 1.00 0.00
vn -0.00 1.00 0.00
vn 0.00 0.57 -0.82
vn -0.00 0.57 -0.82
vn 0.00 -0.00 1.00
vn -0.00 0.57 0.82
vn -1.00 0.00 -0.00
vn -1.00 -0.00 -0.00
vn -1.00 0.00 0.00
# 15 vertex normals

vt -1.33 -3.13 0.00
vt 1.33 -2.92 0.00
vt -1.33 -2.92 0.00
vt 1.33 -3.13 0.00
vt -0.35 2.65 0.00
vt 0.00 -0.00 0.00
vt 0.00 2.65 0.00
vt -0.35 -0.00 0.00
vt 1.77 0.35 0.00
vt 5.31 0.88 0.00
vt 1.77 0.88 0.00
vt 0.00 0.00 0.00
vt 1.56 0.35 0.00
vt 0.00 0.35 0.00
vt 5.31 0.00 0.00
vt 0.00 -0.88 0.00
vt -3.54 -0.35 0.00
vt -3.54 -0.88 0.00
vt -5.31 -0.35 0.00
vt -5.31 -0.00 0.00
vt -3.75 -0.35 0.00
vt -0.88 0.27 0.00
vt 0.00 0.27 0.00
vt -0.88 -0.00 0.00
vt -0.88 1.54 0.00
vt 0.00 1.54 0.00
vt -0.88 0.00 0.00
vt 0.00 -0.35 0.00
vt -0.88 -0.35 0.00
vt -0.00 1.54 0.00
vt -0.00 -0.00 0.00
vt 0.62 1.33 0.00
vt -0.64 0.18 0.00
vt 0.62 1.06 0.00
vt 0.62 -1.06 0.00
vt -4.69 -1.33 0.00
vt 0.62 -1.33 0.00
vt -0.64 -0.18 0.00
vt -1.00 -0.18 0.00
vt -4.69 1.33 0.00
vt -1.00 0.18 0.00
vt 0.18 -0.64 0.00
vt 1.33 0.62 0.00
vt 1.06 0.62 0.00
vt -1.06 0.62 0.00
vt -1.33 0.62 0.00
vt -0.18 -0.64 0.00
vt -0.18 -1.00 0.00
vt 0.18 -1.00 0.00
vt -0.53 2.65 0.00
vt -0.53 0.00 0.00
# 51 texture coords

g NONE_DC_Shell
usemtl wire_000255255
s 1
f 67/113/29 68/114/30 69/115/30 
f 68/114/30 67/113/29 70/116/29 
f 71/117/31 72/118/32 73/119/31 
f 72/118/32 71/117/31 74/120/31 
f 68/121/33 75/122/33 76/123/33 
f 73/124/33 70/125/33 71/126/33 
f 77/127/33 70/125/33 73/124/33 
f 77/127/33 68/121/33 70/125/33 
f 75/122/33 68/121/33 77/127/33 
f 78/128/34 69/129/34 79/130/34 
f 74/131/34 80/118/34 72/132/34 
f 67/133/34 80/118/34 74/131/34 
f 69/129/34 80/118/34 67/133/34 
f 69/129/34 78/128/34 80/118/34 
f 78/134/35 81/118/36 80/135/35 
f 81/118/36 78/134/35 82/136/36 
f 82/137/37 83/118/38 81/138/37 
f 83/118/38 82/137/37 84/136/38 
f 84/139/33 85/140/33 83/124/33 
f 85/140/33 84/139/33 86/141/33 
f 85/118/35 87/141/35 88/140/35 
f 87/141/35 85/118/35 86/136/35 
f 87/136/34 89/140/39 88/118/34 
f 89/140/39 87/136/34 90/141/39 
f 89/142/40 91/136/40 92/143/40 
f 91/136/40 89/142/40 90/137/40 
f 92/135/35 75/139/35 77/124/35 
f 75/139/35 92/135/35 91/134/35 
f 77/144/41 89/145/41 92/146/41 
f 81/147/42 72/148/43 80/149/43 
f 83/150/41 72/148/43 81/147/42 
f 85/151/41 72/148/43 83/150/41 
f 85/151/41 73/152/41 72/148/43 
f 88/153/41 73/152/41 85/151/41 
f 88/153/41 77/144/41 73/152/41 
f 89/145/41 77/144/41 88/153/41 
f 90/154/30 75/155/30 91/156/30 
f 79/115/29 82/157/30 78/158/30 
f 79/115/29 84/159/30 82/157/30 
f 79/115/29 86/160/30 84/159/30 
f 76/114/29 86/160/30 79/115/29 
f 76/114/29 87/161/30 86/160/30 
f 75/155/30 87/161/30 76/114/29 
f 75/155/30 90/154/30 87/161/30 
f 76/162/31 69/124/32 68/119/31 
f 69/124/32 76/162/31 79/163/31 
# 46 faces

#
# object NONE_DC_Shell
#

v  -52.60 -46.26 -0.50
v  -57.60 -46.26 0.50
v  -57.60 -46.26 -0.50
v  -52.60 -46.26 0.50
v  -57.60 -46.26 -10.00
v  -52.60 3.74 -10.00
v  -52.60 -46.26 -10.00
v  -57.60 3.74 -10.00
v  -57.60 3.74 -7.50
v  -52.60 3.74 -7.50
v  -52.60 -5.55 -1.00
v  -57.60 -5.55 -1.00
v  -52.60 -7.55 -1.00
v  -57.60 -7.55 -1.00
v  -57.60 -7.55 1.00
v  -52.60 -7.55 1.00
v  -57.60 -5.55 1.00
v  -52.60 -5.55 1.00
v  -52.60 3.74 7.50
v  -57.60 3.74 7.50
v  -57.60 3.74 10.00
v  -52.60 3.74 10.00
v  -52.60 -46.26 10.00
v  -57.60 -46.26 10.00
# 24 vertices

vn -0.00 -1.00 -0.00
vn 0.00 -1.00 -0.00
vn 0.00 0.00 -1.00
vn 0.00 1.00 0.00
vn -0.00 1.00 0.00
vn 0.00 0.57 0.82
vn 0.00 -0.00 1.00
vn -0.00 0.57 -0.82
vn 0.00 0.57 -0.82
vn 1.00 0.00 0.00
vn 1.00 -0.00 -0.00
vn 1.00 0.00 -0.00
vn -1.00 0.00 -0.00
vn -1.00 -0.00 0.00
# 14 vertex normals

vt 0.00 1.05 0.00
vt -0.55 1.16 0.00
vt -0.55 1.05 0.00
vt 0.00 1.16 0.00
vt 0.00 -0.55 0.00
vt 5.55 -0.00 0.00
vt 0.00 -0.00 0.00
vt 5.55 -0.55 0.00
vt -0.00 0.00 0.00
vt -0.55 -0.28 0.00
vt 0.00 -0.28 0.00
vt -0.55 0.00 0.00
vt -0.55 -0.00 0.00
vt 0.00 -1.26 0.00
vt 0.00 0.00 0.00
vt -0.55 -1.26 0.00
vt 0.00 0.55 0.00
vt -0.22 0.00 0.00
vt -0.22 0.55 0.00
vt -0.55 -0.22 0.00
vt 0.00 -0.22 0.00
vt 0.22 -0.55 0.00
vt 0.22 -0.00 0.00
vt -0.55 1.26 0.00
vt 0.00 1.26 0.00
vt -0.00 0.28 0.00
vt -0.55 0.28 0.00
vt 5.55 0.55 0.00
vt 5.55 0.00 0.00
vt 5.55 1.11 0.00
vt 4.52 0.11 0.00
vt 5.55 0.83 0.00
vt 5.55 -0.83 0.00
vt 0.00 -1.11 0.00
vt 5.55 -1.11 0.00
vt 4.52 -0.11 0.00
vt 4.30 -0.11 0.00
vt 0.00 -0.06 0.00
vt 4.30 0.11 0.00
vt 0.00 0.06 0.00
vt 0.00 1.11 0.00
vt -0.83 5.55 0.00
vt -0.11 4.30 0.00
vt -0.11 4.52 0.00
vt -0.06 0.00 0.00
vt -1.11 5.55 0.00
vt -1.11 0.00 0.00
vt 0.83 5.55 0.00
vt 1.11 0.00 0.00
vt 1.11 5.55 0.00
vt 0.11 4.52 0.00
vt 0.11 4.30 0.00
vt 0.06 0.00 0.00
# 53 texture coords

g NONE_DC_Shell
usemtl wire_000255255
s 1
f 93/164/44 94/165/45 95/166/44 
f 94/165/45 93/164/44 96/167/45 
f 97/168/46 98/169/46 99/170/46 
f 98/169/46 97/168/46 100/171/46 
f 98/172/47 101/173/47 102/174/48 
f 101/173/47 98/172/47 100/175/47 
f 101/176/49 103/177/49 102/178/49 
f 103/177/49 101/176/49 104/179/49 
f 104/180/50 105/181/50 103/178/50 
f 105/181/50 104/180/50 106/182/50 
f 105/178/47 107/183/48 108/184/47 
f 107/183/48 105/178/47 106/175/47 
f 108/170/46 109/185/46 110/186/46 
f 109/185/46 108/170/46 107/168/46 
f 109/187/51 111/178/52 110/188/51 
f 111/178/52 109/187/51 112/175/52 
f 111/189/47 113/176/48 114/170/48 
f 113/176/48 111/189/47 112/190/47 
f 113/191/50 115/178/50 114/192/50 
f 115/178/50 113/191/50 116/180/50 
f 114/193/53 110/194/54 111/195/54 
f 102/196/54 99/197/54 98/198/53 
f 103/199/54 99/197/54 102/196/54 
f 105/200/54 99/197/54 103/199/54 
f 105/200/54 93/201/53 99/197/54 
f 108/202/54 93/201/53 105/200/54 
f 108/202/54 96/203/55 93/201/53 
f 108/202/54 115/204/53 96/203/55 
f 108/202/54 114/193/53 115/204/53 
f 110/194/54 114/193/53 108/202/54 
f 101/205/56 106/206/56 104/207/56 
f 95/208/57 100/209/56 97/210/56 
f 95/208/57 101/205/56 100/209/56 
f 112/211/56 116/212/57 113/213/56 
f 109/214/56 116/212/57 112/211/56 
f 107/215/56 116/212/57 109/214/56 
f 107/215/56 94/216/57 116/212/57 
f 106/206/56 94/216/57 107/215/56 
f 106/206/56 95/208/57 94/216/57 
f 106/206/56 101/205/56 95/208/57 
# 40 faces

#
# object NONE_DC_Shell
#

v  -52.60 -46.26 10.00
v  94.90 -46.26 0.50
v  -52.60 -46.26 0.50
v  -105.10 -46.26 150.00
v  -105.00 -46.26 0.50
v  -105.10 -46.26 0.50
v  -105.00 -46.26 10.00
v  94.90 -46.26 150.00
v  -85.00 -46.26 10.00
v  -85.00 -46.26 0.50
v  -57.60 -46.26 10.00
v  -57.60 -46.26 0.50
v  94.90 -46.26 -0.50
v  -52.60 -46.26 -10.00
v  -52.60 -46.26 -0.50
v  -57.60 -46.26 -10.00
v  -85.00 -46.26 -0.50
v  -57.60 -46.26 -0.50
v  -85.00 -46.26 -10.00
v  -105.00 -46.26 -10.00
v  -105.10 -46.26 -0.50
v  -105.00 -46.26 -0.50
v  -105.10 -46.26 -50.00
v  94.90 -46.26 -50.00
v  94.90 -47.26 -1.25
v  94.90 -48.26 -1.25
v  94.90 -47.26 0.50
v  94.90 -47.26 1.25
v  94.90 -56.26 150.00
v  94.90 -48.26 1.25
v  94.90 -56.26 -50.00
v  94.90 -47.26 -0.50
v  -105.10 -56.26 150.00
v  -105.10 -48.26 -1.25
v  -105.10 -48.26 1.25
v  -105.10 -56.26 -50.00
v  -105.10 -47.26 -0.50
v  -105.10 -47.26 -1.25
v  -105.10 -47.26 1.25
v  -105.10 -47.26 0.50
# 40 vertices

vn 0.00 1.00 0.00
vn -0.00 1.00 0.00
vn 1.00 0.00 -0.00
vn 0.00 -0.00 1.00
vn -1.00 0.00 -0.00
vn 0.00 0.00 -1.00
vn 0.00 -1.00 -0.00
vn -0.00 0.00 -1.00
vn -0.00 -1.00 -0.00
vn -0.00 -0.00 1.00
# 10 vertex normals

vt -1.01 -0.21 0.00
vt 2.12 -0.01 0.00
vt -1.01 -0.01 0.00
vt -2.12 -3.18 0.00
vt -2.12 -0.01 0.00
vt -2.12 -0.21 0.00
vt 2.12 -3.18 0.00
vt -1.69 -0.21 0.00
vt -1.69 -0.01 0.00
vt -1.11 -0.21 0.00
vt -1.11 -0.01 0.00
vt 2.12 0.01 0.00
vt -1.01 0.21 0.00
vt -1.01 0.01 0.00
vt -1.11 0.21 0.00
vt -1.69 0.01 0.00
vt -1.11 0.01 0.00
vt -1.69 0.21 0.00
vt -2.12 0.21 0.00
vt -2.12 0.01 0.00
vt -2.12 1.06 0.00
vt 2.12 1.06 0.00
vt 4.24 0.21 0.00
vt 3.21 0.19 0.00
vt 3.21 0.17 0.00
vt -0.00 0.21 0.00
vt 3.17 0.19 0.00
vt 3.17 0.21 0.00
vt 3.15 0.19 0.00
vt -0.00 -0.00 0.00
vt 3.15 0.17 0.00
vt 4.24 -0.00 0.00
vt 3.19 0.21 0.00
vt 3.19 0.19 0.00
vt -3.21 0.17 0.00
vt 0.00 -0.00 0.00
vt -3.15 0.17 0.00
vt -3.17 0.21 0.00
vt 0.00 0.21 0.00
vt -4.24 0.21 0.00
vt -4.24 0.00 0.00
vt -3.19 0.19 0.00
vt -3.19 0.21 0.00
vt -3.21 0.19 0.00
vt -3.15 0.19 0.00
vt -3.17 0.19 0.00
vt -4.24 -0.00 0.00
vt 1.06 2.12 0.00
vt -3.18 -2.12 0.00
vt 1.06 -2.12 0.00
vt -3.18 2.12 0.00
vt 0.00 0.00 0.00
vt -3.13 -0.02 0.00
vt -0.00 -0.02 0.00
vt -4.24 -0.02 0.00
vt -3.81 -0.02 0.00
vt -3.23 -0.02 0.00
vt -0.00 -0.05 0.00
vt -0.00 0.00 0.00
vt -4.24 -0.05 0.00
vt -3.13 -0.00 0.00
vt -3.23 -0.00 0.00
vt -3.81 -0.00 0.00
# 63 texture coords

g NONE_DC_Shell
usemtl wire_188188188
s 1
f 117/217/58 118/218/58 119/219/58 
f 120/220/59 121/221/58 122/221/58 
f 120/220/59 123/222/58 121/221/58 
f 124/223/58 123/222/58 120/220/59 
f 124/223/58 125/224/58 123/222/58 
f 126/225/58 127/226/58 128/227/58 
f 125/224/58 127/226/58 126/225/58 
f 124/223/58 127/226/58 125/224/58 
f 124/223/58 117/217/58 127/226/58 
f 118/218/58 117/217/58 124/223/58 
f 129/228/59 130/229/58 131/230/58 
f 132/231/58 133/232/58 134/233/58 
f 132/231/58 135/234/58 133/232/58 
f 136/235/58 137/236/58 138/236/58 
f 136/235/58 139/237/58 137/236/58 
f 136/235/58 140/238/58 139/237/58 
f 135/234/58 140/238/58 136/235/58 
f 132/231/58 140/238/58 135/234/58 
f 130/229/58 140/238/58 132/231/58 
f 130/229/58 129/228/59 140/238/58 
f 140/239/60 141/240/60 142/241/60 
f 124/242/60 143/243/60 118/244/60 
f 124/242/60 144/245/60 143/243/60 
f 145/246/60 144/245/60 124/242/60 
f 145/246/60 146/247/60 144/245/60 
f 147/248/60 146/247/60 145/246/60 
f 147/248/60 142/241/60 146/247/60 
f 140/239/60 142/241/60 147/248/60 
f 141/240/60 129/249/60 148/250/60 
f 141/240/60 140/239/60 129/249/60 
f 120/242/61 145/248/61 124/239/61 
f 145/248/61 120/242/61 149/246/61 
f 150/251/62 149/252/62 151/253/62 
f 122/254/62 149/252/62 120/255/62 
f 149/252/62 139/256/62 152/257/62 
f 139/256/62 153/258/62 137/259/62 
f 139/256/62 154/260/62 153/258/62 
f 155/261/62 122/254/62 156/262/62 
f 155/261/62 149/252/62 122/254/62 
f 151/253/62 149/252/62 155/261/62 
f 139/256/62 150/251/62 154/260/62 
f 149/252/62 150/251/62 139/256/62 
f 140/256/63 152/246/63 139/242/63 
f 152/246/63 140/256/63 147/263/63 
f 147/264/64 149/265/64 152/266/64 
f 149/265/64 147/264/64 145/267/64 
f 143/268/63 119/269/63 118/270/65 
f 121/271/63 156/257/63 122/271/63 
f 121/271/63 143/268/63 156/257/63 
f 126/272/63 143/268/63 121/271/63 
f 128/273/63 143/268/63 126/272/63 
f 119/269/63 143/268/63 128/273/63 
f 155/263/64 143/270/66 144/246/64 
f 143/270/66 155/263/64 156/271/66 
f 151/257/63 144/270/63 146/268/63 
f 144/270/63 151/257/63 155/271/63 
f 150/257/58 146/274/58 142/275/58 
f 146/274/58 150/257/58 151/276/58 
f 141/246/61 150/271/67 142/270/67 
f 150/271/67 141/246/61 154/263/61 
f 153/263/64 141/270/64 148/246/64 
f 141/270/64 153/263/64 154/271/64 
f 153/271/61 138/263/61 137/263/61 
f 131/277/61 148/270/61 129/246/61 
f 131/277/61 153/271/61 148/270/61 
f 134/278/61 153/271/61 131/277/61 
f 133/279/61 153/271/61 134/278/61 
f 138/263/61 153/271/61 133/279/61 
# 68 faces

