# 3ds Max Wavefront OBJ Exporter v0.97b - (c)2007 guruware
# 创建的文件:27.04.2017 11:31:32

mtllib button-off.mtl

#
# object _DC_Brep
#

v  27.00 33.00 40.50
v  27.00 32.81 43.50
v  27.00 33.00 43.50
v  27.83 30.57 43.50
v  27.71 30.72 40.50
v  27.83 30.57 40.50
v  27.71 30.72 43.50
v  27.51 31.05 40.50
v  27.51 31.05 43.50
v  27.34 31.38 43.50
v  27.34 31.38 40.50
v  27.21 31.71 43.50
v  27.21 31.71 40.50
v  27.11 32.06 40.50
v  27.11 32.06 43.50
v  27.04 32.43 43.50
v  27.04 32.43 40.50
v  27.00 32.81 40.50
v  34.97 32.54 43.50
v  34.97 32.54 40.50
v  34.92 33.81 43.50
v  34.83 34.16 40.50
v  34.83 34.16 43.50
v  34.46 35.00 43.50
v  34.54 34.86 40.50
v  34.46 35.00 40.50
v  34.54 34.86 43.50
v  34.70 34.51 40.50
v  34.70 34.51 43.50
v  34.99 32.70 40.50
v  34.99 32.70 43.50
v  35.00 33.09 40.50
v  35.00 33.09 43.50
v  34.97 33.46 43.50
v  34.97 33.46 40.50
v  34.92 33.81 40.50
v  32.86 34.07 43.50
v  32.86 34.07 40.50
v  32.30 33.78 40.50
v  28.86 33.00 43.50
v  29.49 33.02 40.50
v  28.86 33.00 40.50
v  29.49 33.02 43.50
v  30.22 33.12 40.50
v  30.22 33.12 43.50
v  30.93 33.27 43.50
v  30.93 33.27 40.50
v  31.61 33.49 43.50
v  31.61 33.49 40.50
v  32.30 33.78 43.50
v  27.47 31.11 43.50
v  34.74 34.43 43.50
v  27.05 32.35 43.50
v  35.00 33.18 43.50
v  32.40 33.83 43.50
v  31.92 33.61 43.50
v  31.43 33.43 43.50
v  30.41 33.15 43.50
v  29.90 33.07 43.50
v  29.38 33.02 43.50
v  35.00 33.18 40.50
v  34.74 34.43 40.50
v  27.05 32.35 40.50
v  27.47 31.11 40.50
v  29.38 33.02 40.50
v  29.90 33.07 40.50
v  30.41 33.15 40.50
v  31.43 33.43 40.50
v  31.92 33.61 40.50
v  32.40 33.83 40.50
# 70 vertices

vn -1.00 0.00 0.00
vn -1.00 -0.05 -0.00
vn -0.79 -0.61 -0.00
vn -0.82 -0.57 -0.00
vn -0.87 -0.49 -0.00
vn -0.91 -0.41 -0.00
vn -0.95 -0.32 -0.00
vn -0.97 -0.23 -0.00
vn -0.99 -0.14 -0.00
vn 0.27 -0.96 -0.00
vn 0.98 0.20 0.00
vn 0.96 0.29 0.00
vn 0.87 0.50 0.00
vn 0.89 0.46 0.00
vn 0.93 0.38 0.00
vn 1.00 -0.07 -0.00
vn 0.99 -0.11 -0.00
vn 1.00 0.02 0.00
vn 0.99 0.11 0.00
vn -0.50 0.87 0.00
vn -0.43 0.90 0.00
vn 0.00 1.00 0.00
vn -0.08 1.00 0.00
vn -0.17 0.99 0.00
vn -0.26 0.97 0.00
vn -0.34 0.94 0.00
vn -0.00 -0.00 1.00
vn 0.00 -0.00 1.00
vn 0.00 0.00 -1.00
# 29 vertex normals

vt 0.04 1.86 0.00
vt -0.08 0.00 0.00
vt 0.04 0.00 0.00
vt -1.65 0.00 0.00
vt -1.53 1.86 0.00
vt -1.65 1.86 0.00
vt -1.53 0.00 0.00
vt -1.29 1.86 0.00
vt -1.29 0.00 0.00
vt -1.05 0.00 0.00
vt -1.05 1.86 0.00
vt -0.81 0.00 0.00
vt -0.81 1.86 0.00
vt -0.56 1.86 0.00
vt -0.56 0.00 0.00
vt -0.32 0.00 0.00
vt -0.32 1.86 0.00
vt -0.08 1.86 0.00
vt -1.86 0.00 0.00
vt 0.00 -4.60 0.00
vt 0.00 0.00 0.00
vt -1.86 -4.60 0.00
vt 7.25 -0.00 0.00
vt 7.00 1.86 0.00
vt 7.00 -0.00 0.00
vt 6.42 0.00 0.00
vt 6.52 1.86 0.00
vt 6.42 1.86 0.00
vt 6.52 -0.00 0.00
vt 6.76 1.86 0.00
vt 6.76 0.00 0.00
vt 7.97 1.86 0.00
vt 8.07 0.00 0.00
vt 8.07 1.86 0.00
vt 7.97 -0.00 0.00
vt 7.73 1.86 0.00
vt 7.73 -0.00 0.00
vt 7.49 -0.00 0.00
vt 7.49 1.86 0.00
vt 7.25 1.86 0.00
vt -1.86 1.15 0.00
vt 0.00 -0.00 0.00
vt 0.00 1.15 0.00
vt -1.86 -0.00 0.00
vt 1.86 20.99 0.00
vt -0.00 20.59 0.00
vt 1.86 20.59 0.00
vt -0.00 23.33 0.00
vt 1.86 22.93 0.00
vt 1.86 23.33 0.00
vt -0.00 22.93 0.00
vt 1.86 22.44 0.00
vt -0.00 22.44 0.00
vt -0.00 21.96 0.00
vt 1.86 21.96 0.00
vt -0.00 21.47 0.00
vt 1.86 21.47 0.00
vt -0.00 20.99 0.00
vt -1.97 -1.51 0.00
vt -1.33 0.00 0.00
vt -2.19 -1.17 0.00
vt 1.15 0.67 0.00
vt 2.32 0.89 0.00
vt 2.15 1.24 0.00
vt -2.45 -0.40 0.00
vt -2.48 0.00 0.00
vt -2.35 -0.80 0.00
vt 2.43 0.50 0.00
vt 2.48 0.11 0.00
vt 2.47 -0.28 0.00
vt 0.87 0.51 0.00
vt 0.57 0.38 0.00
vt 0.27 0.26 0.00
vt -0.05 0.17 0.00
vt -0.36 0.10 0.00
vt -0.69 0.04 0.00
vt -1.01 0.01 0.00
vt -0.28 2.47 0.00
vt 0.67 1.15 0.00
vt 0.11 2.48 0.00
vt 0.89 2.32 0.00
vt 1.24 2.15 0.00
vt -0.00 -1.33 0.00
vt -0.40 -2.45 0.00
vt -0.00 -2.48 0.00
vt -0.80 -2.35 0.00
vt 0.50 2.43 0.00
vt -1.17 -2.19 0.00
vt -1.51 -1.97 0.00
vt 0.01 -1.01 0.00
vt 0.04 -0.69 0.00
vt 0.10 -0.36 0.00
vt 0.17 -0.05 0.00
vt 0.26 0.27 0.00
vt 0.38 0.57 0.00
vt 0.51 0.87 0.00
# 96 texture coords

g _DC_Brep
usemtl wire_135006006
s 1
f 1/1/1 2/2/2 3/3/1 
f 4/4/3 5/5/4 6/6/3 
f 7/7/4 5/5/4 4/4/3 
f 7/7/4 8/8/5 5/5/4 
f 9/9/5 8/8/5 7/7/4 
f 10/10/6 8/8/5 9/9/5 
f 10/10/6 11/11/6 8/8/5 
f 12/12/7 11/11/6 10/10/6 
f 12/12/7 13/13/7 11/11/6 
f 12/12/7 14/14/8 13/13/7 
f 15/15/8 14/14/8 12/12/7 
f 16/16/9 14/14/8 15/15/8 
f 16/16/9 17/17/9 14/14/8 
f 2/2/2 17/17/9 16/16/9 
f 2/2/2 18/18/2 17/17/9 
f 2/2/2 1/1/1 18/18/2 
f 6/19/10 19/20/10 4/21/10 
f 19/20/10 6/19/10 20/22/10 
f 21/23/11 22/24/12 23/25/12 
f 24/26/13 25/27/14 26/28/13 
f 27/29/14 25/27/14 24/26/13 
f 27/29/14 28/30/15 25/27/14 
f 29/31/15 28/30/15 27/29/14 
f 23/25/12 28/30/15 29/31/15 
f 23/25/12 22/24/12 28/30/15 
f 30/32/16 19/33/17 20/34/17 
f 30/32/16 31/35/16 19/33/17 
f 32/36/18 31/35/16 30/32/16 
f 32/36/18 33/37/18 31/35/16 
f 32/36/18 34/38/19 33/37/18 
f 35/39/19 34/38/19 32/36/18 
f 35/39/19 21/23/11 34/38/19 
f 36/40/11 21/23/11 35/39/19 
f 22/24/12 21/23/11 36/40/11 
f 26/41/20 37/42/20 24/43/20 
f 37/42/20 26/41/20 38/44/20 
f 39/45/21 37/46/20 38/47/20 
f 40/48/22 41/49/23 42/50/22 
f 43/51/23 41/49/23 40/48/22 
f 43/51/23 44/52/24 41/49/23 
f 45/53/24 44/52/24 43/51/23 
f 46/54/25 44/52/24 45/53/24 
f 46/54/25 47/55/25 44/52/24 
f 48/56/26 47/55/25 46/54/25 
f 48/56/26 49/57/26 47/55/25 
f 50/58/21 49/57/26 48/56/26 
f 50/58/21 39/45/21 49/57/26 
f 37/46/20 39/45/21 50/58/21 
f 42/41/22 3/21/22 40/43/22 
f 3/21/22 42/41/22 1/19/22 
f 4/59/27 40/60/27 51/61/28 
f 37/62/28 52/63/28 24/64/28 
f 53/65/28 40/60/27 3/66/27 
f 12/67/28 40/60/27 53/65/28 
f 37/62/28 21/68/28 52/63/28 
f 37/62/28 54/69/28 21/68/28 
f 51/61/28 40/60/27 12/67/28 
f 54/69/28 4/59/27 19/70/28 
f 37/62/28 4/59/27 54/69/28 
f 55/71/28 4/59/27 37/62/28 
f 56/72/28 4/59/27 55/71/28 
f 57/73/27 4/59/27 56/72/28 
f 46/74/28 4/59/27 57/73/27 
f 58/75/28 4/59/27 46/74/28 
f 59/76/27 4/59/27 58/75/28 
f 60/77/28 4/59/27 59/76/27 
f 40/60/27 4/59/27 60/77/28 
f 20/78/29 38/79/29 61/80/29 
f 62/81/29 38/79/29 26/82/29 
f 42/83/29 63/84/29 1/85/29 
f 42/83/29 13/86/29 63/84/29 
f 36/87/29 38/79/29 62/81/29 
f 61/80/29 38/79/29 36/87/29 
f 42/83/29 64/88/29 13/86/29 
f 64/88/29 20/78/29 6/89/29 
f 42/83/29 20/78/29 64/88/29 
f 65/90/29 20/78/29 42/83/29 
f 66/91/29 20/78/29 65/90/29 
f 67/92/29 20/78/29 66/91/29 
f 47/93/29 20/78/29 67/92/29 
f 68/94/29 20/78/29 47/93/29 
f 69/95/29 20/78/29 68/94/29 
f 70/96/29 20/78/29 69/95/29 
f 38/79/29 20/78/29 70/96/29 
# 84 faces

