# 3ds Max Wavefront OBJ Exporter v0.97b - (c)2007 guruware
# 创建的文件:01.06.2017 22:59:21

mtllib 实验室\模型\圆度\offSwich.mtl

#
# object VExtr042
#

v  77.6002 26.3970 50.3201
v  77.6004 26.6170 50.9211
v  82.4004 26.6170 50.9201
v  82.4002 26.3970 50.3191
v  77.6008 27.6873 52.9147
v  82.4008 27.6873 52.9137
v  77.6005 30.8829 51.4046
v  82.4005 30.8829 51.4036
v  77.6003 34.2985 50.4955
v  82.4003 34.2985 50.4945
v  77.5998 33.8293 48.2819
v  82.3998 33.8293 48.2809
v  77.5997 33.6093 47.6809
v  82.3997 33.6093 47.6799
v  77.6000 30.0032 49.0005
v  82.4000 30.0032 48.9995
# 16 vertices

vn -0.0001 0.9391 -0.3436
vn -0.0001 0.8811 -0.4730
vn -0.0002 -0.4273 -0.9041
vn -0.0002 -0.2572 -0.9664
vn 0.0000 -0.9783 0.2074
vn 0.0001 -0.9391 0.3436
vn 1.0000 0.0000 -0.0002
vn -1.0000 -0.0000 0.0002
# 8 vertex normals

g VExtr042
usemtl 01___Default
s 1
f 1//1 2//1 3//1 
s 2
f 3//1 4//1 1//1 
f 2//2 5//2 6//2 
s 4
f 6//2 3//2 2//2 
s 1
f 5//3 7//3 8//3 
s 8
f 8//3 6//3 5//3 
s 2
f 7//4 9//4 10//4 
s 4
f 10//4 8//4 7//4 
s 1
f 9//5 11//5 12//5 
s 8
f 12//5 10//5 9//5 
s 2
f 11//6 13//6 14//6 
s 4
f 14//6 12//6 11//6 
s 1
f 1//7 15//7 2//7 
s 2
f 2//7 15//7 5//7 
s 4
f 5//7 15//7 7//7 
s 8
f 7//7 15//7 9//7 
s 16
f 9//7 15//7 11//7 
s 32
f 11//7 15//7 13//7 
s 64
f 13//6 15//6 1//6 
s 1
f 4//8 3//8 16//8 
s 2
f 3//8 6//8 16//8 
s 4
f 6//8 8//8 16//8 
s 8
f 8//8 10//8 16//8 
s 16
f 10//8 12//8 16//8 
s 32
f 12//8 14//8 16//8 
s 64
f 14//6 4//6 16//6 
# 26 faces

#
# object Box001
#

v  73.0000 39.0000 40.0000
v  87.0000 39.0000 40.0000
v  87.0000 21.0000 40.0000
v  73.0000 21.0000 40.0000
v  73.0000 39.0000 50.0000
v  73.0000 21.0000 50.0000
v  87.0000 21.0000 50.0000
v  87.0000 39.0000 50.0000
# 8 vertices

vn 0.0000 -0.0000 -1.0000
vn -0.0000 0.0000 1.0000
vn -1.0000 0.0000 -0.0000
vn -0.0000 -1.0000 -0.0000
vn 1.0000 -0.0000 0.0000
vn 0.0000 1.0000 -0.0000
# 6 vertex normals

vt 1.0000 0.0000 0.0000
vt 1.0000 1.0000 0.0000
vt 0.0000 1.0000 0.0000
vt 0.0000 0.0000 0.0000
# 4 texture coords

g Box001
usemtl 02___Default
s 2
f 17/1/9 18/2/9 19/3/9 
f 19/3/9 20/4/9 17/1/9 
s 4
f 21/4/10 22/1/10 23/2/10 
f 23/2/10 24/3/10 21/4/10 
s 8
f 17/4/11 20/1/11 22/2/11 
f 22/2/11 21/3/11 17/4/11 
s 16
f 20/4/12 19/1/12 23/2/12 
f 23/2/12 22/3/12 20/4/12 
s 32
f 19/4/13 18/1/13 24/2/13 
f 24/2/13 23/3/13 19/4/13 
s 64
f 18/4/14 17/1/14 21/2/14 
f 21/2/14 24/3/14 18/4/14 
# 12 faces

